<mxfile host="app.diagrams.net" modified="2021-07-08T09:11:39.836Z" agent="5.0 (Macintosh; Intel Mac OS X 10_15_7) AppleWebKit/537.36 (KHTML, like Gecko) Chrome/91.0.4472.114 Safari/537.36" etag="rkmxAgID9A67pwLe6HT4" version="14.8.4" type="github">
  <diagram id="JWqnH68YOELqAhPtFyqL" name="Page-1">
    <mxGraphModel dx="5196" dy="2674" grid="1" gridSize="10" guides="1" tooltips="1" connect="1" arrows="1" fold="1" page="1" pageScale="1" pageWidth="827" pageHeight="1169" math="0" shadow="0">
      <root>
        <mxCell id="0" />
        <mxCell id="1" parent="0" />
        <mxCell id="P4zGQBsl5h3b4HmR-ngJ-12" value="" style="endArrow=none;dashed=1;html=1;dashPattern=1 3;strokeWidth=2;exitX=0.25;exitY=1;exitDx=0;exitDy=0;" parent="1" source="P4zGQBsl5h3b4HmR-ngJ-5" edge="1">
          <mxGeometry width="50" height="50" relative="1" as="geometry">
            <mxPoint x="2090" y="1020" as="sourcePoint" />
            <mxPoint x="1030" y="1260" as="targetPoint" />
            <Array as="points">
              <mxPoint x="2250" y="1260" />
            </Array>
          </mxGeometry>
        </mxCell>
        <mxCell id="MvdbTgC7_QNQWsTqHOr7-23" value="" style="rounded=0;whiteSpace=wrap;html=1;strokeColor=none;gradientColor=#ffffff;fillColor=#FFCCE6;" parent="1" vertex="1">
          <mxGeometry x="1720" y="460" width="120" height="850" as="geometry" />
        </mxCell>
        <mxCell id="MvdbTgC7_QNQWsTqHOr7-8" value="" style="rounded=0;whiteSpace=wrap;html=1;strokeColor=none;fillColor=#E6FFCC;rotation=90;" parent="1" vertex="1">
          <mxGeometry x="450" y="754" width="120" height="254" as="geometry" />
        </mxCell>
        <mxCell id="MvdbTgC7_QNQWsTqHOr7-7" value="" style="rounded=0;whiteSpace=wrap;html=1;strokeColor=none;fillColor=#E6FFCC;gradientColor=#ffffff;" parent="1" vertex="1">
          <mxGeometry x="520" y="820" width="120" height="1020" as="geometry" />
        </mxCell>
        <mxCell id="MvdbTgC7_QNQWsTqHOr7-6" value="" style="rounded=0;whiteSpace=wrap;html=1;strokeColor=none;fillColor=#E6E6E6;gradientColor=#ffffff;" parent="1" vertex="1">
          <mxGeometry x="362" y="180" width="120" height="4760" as="geometry" />
        </mxCell>
        <mxCell id="MvdbTgC7_QNQWsTqHOr7-2" value="" style="rounded=0;whiteSpace=wrap;html=1;strokeColor=none;fillColor=#CCFFFF;gradientColor=#ffffff;" parent="1" vertex="1">
          <mxGeometry x="840" y="-20" width="120" height="2060" as="geometry" />
        </mxCell>
        <mxCell id="MvdbTgC7_QNQWsTqHOr7-3" value="" style="rounded=0;whiteSpace=wrap;html=1;strokeColor=none;rotation=90;fillColor=#FFE6CC;" parent="1" vertex="1">
          <mxGeometry x="1165.79" y="-624.23" width="114.03" height="1722.51" as="geometry" />
        </mxCell>
        <mxCell id="MvdbTgC7_QNQWsTqHOr7-5" value="" style="rounded=0;whiteSpace=wrap;html=1;strokeColor=none;fillColor=#CCFFFF;rotation=90;" parent="1" vertex="1">
          <mxGeometry x="1166.5" y="27.5" width="120" height="745" as="geometry" />
        </mxCell>
        <mxCell id="MvdbTgC7_QNQWsTqHOr7-4" value="" style="rounded=0;whiteSpace=wrap;html=1;strokeColor=none;fillColor=#CCFFFF;" parent="1" vertex="1">
          <mxGeometry x="1480" y="180" width="120" height="270" as="geometry" />
        </mxCell>
        <mxCell id="KKkGE1eCo8rrcUPM3MvS-4" value="" style="edgeStyle=orthogonalEdgeStyle;rounded=0;orthogonalLoop=1;jettySize=auto;html=1;" parent="1" source="KKkGE1eCo8rrcUPM3MvS-1" target="KKkGE1eCo8rrcUPM3MvS-3" edge="1">
          <mxGeometry relative="1" as="geometry" />
        </mxCell>
        <mxCell id="KKkGE1eCo8rrcUPM3MvS-20" value="" style="edgeStyle=orthogonalEdgeStyle;rounded=0;orthogonalLoop=1;jettySize=auto;html=1;startArrow=classic;startFill=1;endArrow=none;endFill=0;" parent="1" source="KKkGE1eCo8rrcUPM3MvS-1" target="KKkGE1eCo8rrcUPM3MvS-19" edge="1">
          <mxGeometry relative="1" as="geometry" />
        </mxCell>
        <UserObject label="&lt;font style=&quot;font-size: 24px&quot;&gt;1&lt;/font&gt;" link="https://docs.reach.sh/workshop-hash-lock.html" id="KKkGE1eCo8rrcUPM3MvS-1">
          <mxCell style="ellipse;whiteSpace=wrap;html=1;aspect=fixed;" parent="1" vertex="1">
            <mxGeometry x="380" y="360" width="80" height="80" as="geometry" />
          </mxCell>
        </UserObject>
        <mxCell id="KKkGE1eCo8rrcUPM3MvS-2" value="&lt;font style=&quot;font-size: 24px&quot;&gt;Hash Lock&lt;/font&gt;" style="text;html=1;strokeColor=none;fillColor=none;align=center;verticalAlign=middle;whiteSpace=wrap;rounded=0;" parent="1" vertex="1">
          <mxGeometry x="480" y="390" width="160" height="20" as="geometry" />
        </mxCell>
        <mxCell id="KKkGE1eCo8rrcUPM3MvS-8" value="" style="edgeStyle=orthogonalEdgeStyle;rounded=0;orthogonalLoop=1;jettySize=auto;html=1;" parent="1" source="KKkGE1eCo8rrcUPM3MvS-3" target="KKkGE1eCo8rrcUPM3MvS-7" edge="1">
          <mxGeometry relative="1" as="geometry" />
        </mxCell>
        <UserObject label="&lt;font style=&quot;font-size: 24px&quot;&gt;2&lt;/font&gt;" link="https://docs.reach.sh/workshop-relay.html" id="KKkGE1eCo8rrcUPM3MvS-3">
          <mxCell style="ellipse;whiteSpace=wrap;html=1;aspect=fixed;" parent="1" vertex="1">
            <mxGeometry x="380" y="520" width="80" height="80" as="geometry" />
          </mxCell>
        </UserObject>
        <mxCell id="KKkGE1eCo8rrcUPM3MvS-6" value="&lt;font style=&quot;font-size: 24px&quot;&gt;Relay Account&lt;/font&gt;" style="text;html=1;strokeColor=none;fillColor=none;align=center;verticalAlign=middle;whiteSpace=wrap;rounded=0;" parent="1" vertex="1">
          <mxGeometry x="480" y="550" width="160" height="20" as="geometry" />
        </mxCell>
        <mxCell id="KKkGE1eCo8rrcUPM3MvS-112" value="" style="edgeStyle=orthogonalEdgeStyle;rounded=0;orthogonalLoop=1;jettySize=auto;html=1;startArrow=none;startFill=0;endArrow=classic;endFill=1;strokeColor=#000000;" parent="1" source="KKkGE1eCo8rrcUPM3MvS-7" edge="1">
          <mxGeometry relative="1" as="geometry">
            <mxPoint x="420" y="840" as="targetPoint" />
          </mxGeometry>
        </mxCell>
        <UserObject label="&lt;span style=&quot;font-size: 24px&quot;&gt;3&lt;/span&gt;" link="https://docs.reach.sh/workshop-trust-fund.html" id="KKkGE1eCo8rrcUPM3MvS-7">
          <mxCell style="ellipse;whiteSpace=wrap;html=1;aspect=fixed;" parent="1" vertex="1">
            <mxGeometry x="380" y="680" width="80" height="80" as="geometry" />
          </mxCell>
        </UserObject>
        <mxCell id="KKkGE1eCo8rrcUPM3MvS-267" value="" style="edgeStyle=orthogonalEdgeStyle;rounded=0;orthogonalLoop=1;jettySize=auto;html=1;startArrow=classic;startFill=1;endArrow=none;endFill=0;strokeColor=#000000;" parent="1" source="KKkGE1eCo8rrcUPM3MvS-9" target="KKkGE1eCo8rrcUPM3MvS-7" edge="1">
          <mxGeometry relative="1" as="geometry" />
        </mxCell>
        <mxCell id="KKkGE1eCo8rrcUPM3MvS-9" value="&lt;span style=&quot;font-size: 24px&quot;&gt;Trust Fund&lt;/span&gt;" style="text;html=1;strokeColor=none;fillColor=none;align=center;verticalAlign=middle;whiteSpace=wrap;rounded=0;" parent="1" vertex="1">
          <mxGeometry x="480" y="710" width="160" height="20" as="geometry" />
        </mxCell>
        <mxCell id="KKkGE1eCo8rrcUPM3MvS-14" value="" style="edgeStyle=orthogonalEdgeStyle;rounded=0;orthogonalLoop=1;jettySize=auto;html=1;" parent="1" edge="1">
          <mxGeometry relative="1" as="geometry">
            <mxPoint x="420" y="920" as="sourcePoint" />
            <mxPoint x="420" y="1000" as="targetPoint" />
          </mxGeometry>
        </mxCell>
        <mxCell id="KKkGE1eCo8rrcUPM3MvS-100" value="" style="edgeStyle=orthogonalEdgeStyle;rounded=0;orthogonalLoop=1;jettySize=auto;html=1;startArrow=none;startFill=0;endArrow=classic;endFill=1;strokeColor=#000000;" parent="1" target="KKkGE1eCo8rrcUPM3MvS-99" edge="1">
          <mxGeometry relative="1" as="geometry">
            <mxPoint x="460" y="880" as="sourcePoint" />
          </mxGeometry>
        </mxCell>
        <mxCell id="KKkGE1eCo8rrcUPM3MvS-17" value="" style="edgeStyle=orthogonalEdgeStyle;rounded=0;orthogonalLoop=1;jettySize=auto;html=1;" parent="1" edge="1">
          <mxGeometry relative="1" as="geometry">
            <mxPoint x="420" y="1080" as="sourcePoint" />
            <mxPoint x="420" y="1160" as="targetPoint" />
          </mxGeometry>
        </mxCell>
        <mxCell id="KKkGE1eCo8rrcUPM3MvS-15" value="&lt;span style=&quot;font-size: 24px&quot;&gt;Generalized&lt;/span&gt;" style="text;html=1;strokeColor=none;fillColor=none;align=center;verticalAlign=middle;whiteSpace=wrap;rounded=0;" parent="1" vertex="1">
          <mxGeometry x="650" y="1030" width="200" height="20" as="geometry" />
        </mxCell>
        <mxCell id="KKkGE1eCo8rrcUPM3MvS-18" value="&lt;span style=&quot;font-size: 24px&quot;&gt;Fair&amp;nbsp;&lt;/span&gt;" style="text;html=1;strokeColor=none;fillColor=none;align=center;verticalAlign=middle;whiteSpace=wrap;rounded=0;" parent="1" vertex="1">
          <mxGeometry x="980" y="1190" width="120" height="20" as="geometry" />
        </mxCell>
        <mxCell id="KKkGE1eCo8rrcUPM3MvS-26" value="" style="edgeStyle=orthogonalEdgeStyle;rounded=0;orthogonalLoop=1;jettySize=auto;html=1;startArrow=none;startFill=0;endArrow=classic;endFill=1;" parent="1" source="KKkGE1eCo8rrcUPM3MvS-19" target="KKkGE1eCo8rrcUPM3MvS-25" edge="1">
          <mxGeometry relative="1" as="geometry" />
        </mxCell>
        <UserObject label="&lt;span style=&quot;font-size: 24px&quot;&gt;0&lt;/span&gt;" link="https://docs.reach.sh/tut.html" id="KKkGE1eCo8rrcUPM3MvS-19">
          <mxCell style="ellipse;whiteSpace=wrap;html=1;aspect=fixed;" parent="1" vertex="1">
            <mxGeometry x="380" y="200" width="80" height="80" as="geometry" />
          </mxCell>
        </UserObject>
        <mxCell id="KKkGE1eCo8rrcUPM3MvS-21" value="&lt;font style=&quot;font-size: 24px&quot;&gt;&lt;b&gt;Tutorial&lt;/b&gt;&lt;/font&gt;" style="text;html=1;strokeColor=none;fillColor=none;align=left;verticalAlign=middle;whiteSpace=wrap;rounded=0;" parent="1" vertex="1">
          <mxGeometry x="380" y="160" width="160" height="20" as="geometry" />
        </mxCell>
        <mxCell id="KKkGE1eCo8rrcUPM3MvS-29" value="" style="edgeStyle=orthogonalEdgeStyle;rounded=0;orthogonalLoop=1;jettySize=auto;html=1;startArrow=none;startFill=0;endArrow=classic;endFill=1;" parent="1" source="KKkGE1eCo8rrcUPM3MvS-25" target="KKkGE1eCo8rrcUPM3MvS-28" edge="1">
          <mxGeometry relative="1" as="geometry" />
        </mxCell>
        <UserObject label="&lt;span style=&quot;font-size: 24px&quot;&gt;1&lt;/span&gt;" link="https://docs.reach.sh/tut-1.html" id="KKkGE1eCo8rrcUPM3MvS-25">
          <mxCell style="ellipse;whiteSpace=wrap;html=1;aspect=fixed;" parent="1" vertex="1">
            <mxGeometry x="540" y="200" width="80" height="80" as="geometry" />
          </mxCell>
        </UserObject>
        <mxCell id="KKkGE1eCo8rrcUPM3MvS-27" value="&lt;font style=&quot;font-size: 24px&quot;&gt;Init&lt;/font&gt;" style="text;html=1;strokeColor=none;fillColor=none;align=center;verticalAlign=middle;whiteSpace=wrap;rounded=0;" parent="1" vertex="1">
          <mxGeometry x="525" y="160" width="110" height="20" as="geometry" />
        </mxCell>
        <mxCell id="KKkGE1eCo8rrcUPM3MvS-36" value="" style="edgeStyle=orthogonalEdgeStyle;rounded=0;orthogonalLoop=1;jettySize=auto;html=1;startArrow=none;startFill=0;endArrow=classic;endFill=1;" parent="1" source="KKkGE1eCo8rrcUPM3MvS-28" target="KKkGE1eCo8rrcUPM3MvS-35" edge="1">
          <mxGeometry relative="1" as="geometry" />
        </mxCell>
        <UserObject label="&lt;span style=&quot;font-size: 24px&quot;&gt;2&lt;/span&gt;" link="https://docs.reach.sh/tut-2.html" id="KKkGE1eCo8rrcUPM3MvS-28">
          <mxCell style="ellipse;whiteSpace=wrap;html=1;aspect=fixed;" parent="1" vertex="1">
            <mxGeometry x="700" y="200" width="80" height="80" as="geometry" />
          </mxCell>
        </UserObject>
        <mxCell id="KKkGE1eCo8rrcUPM3MvS-30" value="" style="endArrow=none;dashed=1;html=1;dashPattern=1 3;strokeWidth=2;" parent="1" edge="1">
          <mxGeometry width="50" height="50" relative="1" as="geometry">
            <mxPoint x="595" y="200" as="sourcePoint" />
            <mxPoint x="645" y="150" as="targetPoint" />
          </mxGeometry>
        </mxCell>
        <mxCell id="KKkGE1eCo8rrcUPM3MvS-31" value="&lt;font style=&quot;font-size: 12px&quot;&gt;Get reach and check version&lt;/font&gt;" style="text;html=1;strokeColor=none;fillColor=none;align=center;verticalAlign=middle;whiteSpace=wrap;rounded=0;" parent="1" vertex="1">
          <mxGeometry x="575" y="120" width="125" height="20" as="geometry" />
        </mxCell>
        <mxCell id="KKkGE1eCo8rrcUPM3MvS-32" value="&lt;font style=&quot;font-size: 24px&quot;&gt;Setup&lt;/font&gt;" style="text;html=1;strokeColor=none;fillColor=none;align=center;verticalAlign=middle;whiteSpace=wrap;rounded=0;" parent="1" vertex="1">
          <mxGeometry x="690" y="160" width="110" height="20" as="geometry" />
        </mxCell>
        <mxCell id="KKkGE1eCo8rrcUPM3MvS-33" value="Start building RPS" style="text;html=1;strokeColor=none;fillColor=none;align=center;verticalAlign=middle;whiteSpace=wrap;rounded=0;" parent="1" vertex="1">
          <mxGeometry x="760" y="120" width="125" height="20" as="geometry" />
        </mxCell>
        <mxCell id="KKkGE1eCo8rrcUPM3MvS-34" value="" style="endArrow=none;dashed=1;html=1;dashPattern=1 3;strokeWidth=2;" parent="1" edge="1">
          <mxGeometry width="50" height="50" relative="1" as="geometry">
            <mxPoint x="760" y="200" as="sourcePoint" />
            <mxPoint x="810" y="150" as="targetPoint" />
          </mxGeometry>
        </mxCell>
        <mxCell id="KKkGE1eCo8rrcUPM3MvS-41" value="" style="edgeStyle=orthogonalEdgeStyle;rounded=0;orthogonalLoop=1;jettySize=auto;html=1;startArrow=none;startFill=0;endArrow=classic;endFill=1;" parent="1" source="KKkGE1eCo8rrcUPM3MvS-35" target="KKkGE1eCo8rrcUPM3MvS-40" edge="1">
          <mxGeometry relative="1" as="geometry" />
        </mxCell>
        <mxCell id="KKkGE1eCo8rrcUPM3MvS-116" value="" style="edgeStyle=orthogonalEdgeStyle;rounded=0;orthogonalLoop=1;jettySize=auto;html=1;startArrow=none;startFill=0;endArrow=classic;endFill=1;strokeColor=#000000;" parent="1" source="KKkGE1eCo8rrcUPM3MvS-35" edge="1">
          <mxGeometry relative="1" as="geometry">
            <mxPoint x="900" y="360" as="targetPoint" />
          </mxGeometry>
        </mxCell>
        <UserObject label="&lt;span style=&quot;font-size: 24px&quot;&gt;3&lt;/span&gt;" link="https://docs.reach.sh/tut-3.html" id="KKkGE1eCo8rrcUPM3MvS-35">
          <mxCell style="ellipse;whiteSpace=wrap;html=1;aspect=fixed;" parent="1" vertex="1">
            <mxGeometry x="860" y="200" width="80" height="80" as="geometry" />
          </mxCell>
        </UserObject>
        <mxCell id="KKkGE1eCo8rrcUPM3MvS-37" value="&lt;font style=&quot;font-size: 24px&quot;&gt;&lt;b&gt;RPS&lt;/b&gt;&lt;/font&gt;" style="text;html=1;strokeColor=none;fillColor=none;align=center;verticalAlign=middle;whiteSpace=wrap;rounded=0;" parent="1" vertex="1">
          <mxGeometry x="850" y="160" width="110" height="20" as="geometry" />
        </mxCell>
        <mxCell id="KKkGE1eCo8rrcUPM3MvS-38" value="" style="endArrow=none;dashed=1;html=1;dashPattern=1 3;strokeWidth=2;" parent="1" edge="1">
          <mxGeometry width="50" height="50" relative="1" as="geometry">
            <mxPoint x="910" y="200" as="sourcePoint" />
            <mxPoint x="960" y="150" as="targetPoint" />
          </mxGeometry>
        </mxCell>
        <mxCell id="KKkGE1eCo8rrcUPM3MvS-39" value="Working RPS" style="text;html=1;strokeColor=none;fillColor=none;align=center;verticalAlign=middle;whiteSpace=wrap;rounded=0;" parent="1" vertex="1">
          <mxGeometry x="890" y="120" width="125" height="20" as="geometry" />
        </mxCell>
        <mxCell id="KKkGE1eCo8rrcUPM3MvS-46" value="" style="edgeStyle=orthogonalEdgeStyle;rounded=0;orthogonalLoop=1;jettySize=auto;html=1;startArrow=none;startFill=0;endArrow=classic;endFill=1;" parent="1" source="KKkGE1eCo8rrcUPM3MvS-40" target="KKkGE1eCo8rrcUPM3MvS-45" edge="1">
          <mxGeometry relative="1" as="geometry" />
        </mxCell>
        <UserObject label="&lt;span style=&quot;font-size: 24px&quot;&gt;4&lt;/span&gt;" link="https://docs.reach.sh/tut-4.html" id="KKkGE1eCo8rrcUPM3MvS-40">
          <mxCell style="ellipse;whiteSpace=wrap;html=1;aspect=fixed;" parent="1" vertex="1">
            <mxGeometry x="1020" y="200" width="80" height="80" as="geometry" />
          </mxCell>
        </UserObject>
        <mxCell id="KKkGE1eCo8rrcUPM3MvS-42" value="&lt;font style=&quot;font-size: 24px&quot;&gt;Wagers&lt;/font&gt;" style="text;html=1;strokeColor=none;fillColor=none;align=center;verticalAlign=middle;whiteSpace=wrap;rounded=0;" parent="1" vertex="1">
          <mxGeometry x="990" y="160" width="110" height="20" as="geometry" />
        </mxCell>
        <mxCell id="KKkGE1eCo8rrcUPM3MvS-43" value="" style="endArrow=none;dashed=1;html=1;dashPattern=1 3;strokeWidth=2;" parent="1" edge="1">
          <mxGeometry width="50" height="50" relative="1" as="geometry">
            <mxPoint x="1070" y="200" as="sourcePoint" />
            <mxPoint x="1120" y="150" as="targetPoint" />
          </mxGeometry>
        </mxCell>
        <mxCell id="KKkGE1eCo8rrcUPM3MvS-44" value="Pay wager" style="text;html=1;strokeColor=none;fillColor=none;align=center;verticalAlign=middle;whiteSpace=wrap;rounded=0;" parent="1" vertex="1">
          <mxGeometry x="1040" y="120" width="125" height="20" as="geometry" />
        </mxCell>
        <mxCell id="KKkGE1eCo8rrcUPM3MvS-51" value="" style="edgeStyle=orthogonalEdgeStyle;rounded=0;orthogonalLoop=1;jettySize=auto;html=1;startArrow=none;startFill=0;endArrow=classic;endFill=1;" parent="1" source="KKkGE1eCo8rrcUPM3MvS-45" target="KKkGE1eCo8rrcUPM3MvS-50" edge="1">
          <mxGeometry relative="1" as="geometry" />
        </mxCell>
        <UserObject label="&lt;span style=&quot;font-size: 24px&quot;&gt;5&lt;/span&gt;" link="https://docs.reach.sh/tut-5.html" id="KKkGE1eCo8rrcUPM3MvS-45">
          <mxCell style="ellipse;whiteSpace=wrap;html=1;aspect=fixed;" parent="1" vertex="1">
            <mxGeometry x="1180" y="200" width="80" height="80" as="geometry" />
          </mxCell>
        </UserObject>
        <mxCell id="KKkGE1eCo8rrcUPM3MvS-47" value="&lt;font style=&quot;font-size: 24px&quot;&gt;Trust&lt;/font&gt;" style="text;html=1;strokeColor=none;fillColor=none;align=center;verticalAlign=middle;whiteSpace=wrap;rounded=0;" parent="1" vertex="1">
          <mxGeometry x="1150" y="160" width="110" height="20" as="geometry" />
        </mxCell>
        <mxCell id="KKkGE1eCo8rrcUPM3MvS-48" value="" style="endArrow=none;dashed=1;html=1;dashPattern=1 3;strokeWidth=2;" parent="1" edge="1">
          <mxGeometry width="50" height="50" relative="1" as="geometry">
            <mxPoint x="1220" y="200" as="sourcePoint" />
            <mxPoint x="1270" y="150" as="targetPoint" />
          </mxGeometry>
        </mxCell>
        <mxCell id="KKkGE1eCo8rrcUPM3MvS-49" value="Make fair using commitments" style="text;html=1;strokeColor=none;fillColor=none;align=center;verticalAlign=middle;whiteSpace=wrap;rounded=0;" parent="1" vertex="1">
          <mxGeometry x="1190" y="120" width="125" height="20" as="geometry" />
        </mxCell>
        <mxCell id="KKkGE1eCo8rrcUPM3MvS-56" value="" style="edgeStyle=orthogonalEdgeStyle;rounded=0;orthogonalLoop=1;jettySize=auto;html=1;startArrow=none;startFill=0;endArrow=classic;endFill=1;" parent="1" source="KKkGE1eCo8rrcUPM3MvS-50" target="KKkGE1eCo8rrcUPM3MvS-55" edge="1">
          <mxGeometry relative="1" as="geometry" />
        </mxCell>
        <UserObject label="&lt;span style=&quot;font-size: 24px&quot;&gt;6&lt;/span&gt;" link="https://docs.reach.sh/tut-6.html" id="KKkGE1eCo8rrcUPM3MvS-50">
          <mxCell style="ellipse;whiteSpace=wrap;html=1;aspect=fixed;" parent="1" vertex="1">
            <mxGeometry x="1340" y="200" width="80" height="80" as="geometry" />
          </mxCell>
        </UserObject>
        <mxCell id="KKkGE1eCo8rrcUPM3MvS-52" value="&lt;span style=&quot;font-size: 24px&quot;&gt;Participation&lt;/span&gt;" style="text;html=1;strokeColor=none;fillColor=none;align=center;verticalAlign=middle;whiteSpace=wrap;rounded=0;" parent="1" vertex="1">
          <mxGeometry x="1280" y="160" width="110" height="20" as="geometry" />
        </mxCell>
        <mxCell id="KKkGE1eCo8rrcUPM3MvS-53" value="Introduce timeouts" style="text;html=1;strokeColor=none;fillColor=none;align=center;verticalAlign=middle;whiteSpace=wrap;rounded=0;" parent="1" vertex="1">
          <mxGeometry x="1340" y="120" width="125" height="20" as="geometry" />
        </mxCell>
        <mxCell id="KKkGE1eCo8rrcUPM3MvS-54" value="" style="endArrow=none;dashed=1;html=1;dashPattern=1 3;strokeWidth=2;" parent="1" edge="1">
          <mxGeometry width="50" height="50" relative="1" as="geometry">
            <mxPoint x="1380" y="200" as="sourcePoint" />
            <mxPoint x="1430" y="150" as="targetPoint" />
          </mxGeometry>
        </mxCell>
        <mxCell id="KKkGE1eCo8rrcUPM3MvS-61" value="" style="edgeStyle=orthogonalEdgeStyle;rounded=0;orthogonalLoop=1;jettySize=auto;html=1;startArrow=none;startFill=0;endArrow=classic;endFill=1;" parent="1" source="KKkGE1eCo8rrcUPM3MvS-55" target="KKkGE1eCo8rrcUPM3MvS-60" edge="1">
          <mxGeometry relative="1" as="geometry" />
        </mxCell>
        <mxCell id="KKkGE1eCo8rrcUPM3MvS-135" value="" style="edgeStyle=orthogonalEdgeStyle;rounded=0;orthogonalLoop=1;jettySize=auto;html=1;startArrow=none;startFill=0;endArrow=classic;endFill=1;strokeColor=#000000;" parent="1" source="KKkGE1eCo8rrcUPM3MvS-55" edge="1">
          <mxGeometry relative="1" as="geometry">
            <mxPoint x="1540" y="360" as="targetPoint" />
          </mxGeometry>
        </mxCell>
        <UserObject label="&lt;span style=&quot;font-size: 24px&quot;&gt;7&lt;/span&gt;" link="https://docs.reach.sh/tut-7.html" id="KKkGE1eCo8rrcUPM3MvS-55">
          <mxCell style="ellipse;whiteSpace=wrap;html=1;aspect=fixed;" parent="1" vertex="1">
            <mxGeometry x="1500" y="200" width="80" height="80" as="geometry" />
          </mxCell>
        </UserObject>
        <mxCell id="KKkGE1eCo8rrcUPM3MvS-57" value="&lt;span style=&quot;font-size: 24px&quot;&gt;Loops&lt;/span&gt;" style="text;html=1;strokeColor=none;fillColor=none;align=center;verticalAlign=middle;whiteSpace=wrap;rounded=0;" parent="1" vertex="1">
          <mxGeometry x="1470" y="160" width="110" height="20" as="geometry" />
        </mxCell>
        <mxCell id="KKkGE1eCo8rrcUPM3MvS-58" value="" style="endArrow=none;dashed=1;html=1;dashPattern=1 3;strokeWidth=2;" parent="1" edge="1">
          <mxGeometry width="50" height="50" relative="1" as="geometry">
            <mxPoint x="1550" y="200" as="sourcePoint" />
            <mxPoint x="1600" y="150" as="targetPoint" />
          </mxGeometry>
        </mxCell>
        <mxCell id="KKkGE1eCo8rrcUPM3MvS-59" value="Play until someone wins" style="text;html=1;strokeColor=none;fillColor=none;align=center;verticalAlign=middle;whiteSpace=wrap;rounded=0;" parent="1" vertex="1">
          <mxGeometry x="1490" y="120" width="140" height="22.4" as="geometry" />
        </mxCell>
        <mxCell id="KKkGE1eCo8rrcUPM3MvS-66" value="" style="edgeStyle=orthogonalEdgeStyle;rounded=0;orthogonalLoop=1;jettySize=auto;html=1;startArrow=none;startFill=0;endArrow=classic;endFill=1;" parent="1" source="KKkGE1eCo8rrcUPM3MvS-60" target="KKkGE1eCo8rrcUPM3MvS-65" edge="1">
          <mxGeometry relative="1" as="geometry" />
        </mxCell>
        <UserObject label="&lt;span style=&quot;font-size: 24px&quot;&gt;8&lt;/span&gt;" link="https://docs.reach.sh/tut-8.html" id="KKkGE1eCo8rrcUPM3MvS-60">
          <mxCell style="ellipse;whiteSpace=wrap;html=1;aspect=fixed;" parent="1" vertex="1">
            <mxGeometry x="1660" y="200" width="80" height="80" as="geometry" />
          </mxCell>
        </UserObject>
        <mxCell id="KKkGE1eCo8rrcUPM3MvS-62" value="&lt;span style=&quot;font-size: 24px&quot;&gt;Interaction&lt;/span&gt;" style="text;html=1;strokeColor=none;fillColor=none;align=center;verticalAlign=middle;whiteSpace=wrap;rounded=0;" parent="1" vertex="1">
          <mxGeometry x="1610" y="160" width="110" height="20" as="geometry" />
        </mxCell>
        <mxCell id="KKkGE1eCo8rrcUPM3MvS-63" value="" style="endArrow=none;dashed=1;html=1;dashPattern=1 3;strokeWidth=2;" parent="1" edge="1">
          <mxGeometry width="50" height="50" relative="1" as="geometry">
            <mxPoint x="1710" y="200" as="sourcePoint" />
            <mxPoint x="1760" y="150" as="targetPoint" />
          </mxGeometry>
        </mxCell>
        <mxCell id="KKkGE1eCo8rrcUPM3MvS-64" value="Command line participation" style="text;html=1;strokeColor=none;fillColor=none;align=center;verticalAlign=middle;whiteSpace=wrap;rounded=0;" parent="1" vertex="1">
          <mxGeometry x="1650" y="120" width="160" height="22.4" as="geometry" />
        </mxCell>
        <mxCell id="KKkGE1eCo8rrcUPM3MvS-71" value="" style="edgeStyle=orthogonalEdgeStyle;rounded=0;orthogonalLoop=1;jettySize=auto;html=1;startArrow=none;startFill=0;endArrow=classic;endFill=1;" parent="1" source="KKkGE1eCo8rrcUPM3MvS-65" target="KKkGE1eCo8rrcUPM3MvS-70" edge="1">
          <mxGeometry relative="1" as="geometry" />
        </mxCell>
        <UserObject label="&lt;span style=&quot;font-size: 24px&quot;&gt;9&lt;/span&gt;" link="https://docs.reach.sh/tut-9.html" id="KKkGE1eCo8rrcUPM3MvS-65">
          <mxCell style="ellipse;whiteSpace=wrap;html=1;aspect=fixed;" parent="1" vertex="1">
            <mxGeometry x="1820" y="200" width="80" height="80" as="geometry" />
          </mxCell>
        </UserObject>
        <mxCell id="KKkGE1eCo8rrcUPM3MvS-67" value="&lt;span style=&quot;font-size: 24px&quot;&gt;Interaction II&lt;/span&gt;" style="text;html=1;strokeColor=none;fillColor=none;align=center;verticalAlign=middle;whiteSpace=wrap;rounded=0;" parent="1" vertex="1">
          <mxGeometry x="1750" y="160" width="150" height="20" as="geometry" />
        </mxCell>
        <mxCell id="KKkGE1eCo8rrcUPM3MvS-68" value="" style="endArrow=none;dashed=1;html=1;dashPattern=1 3;strokeWidth=2;" parent="1" edge="1">
          <mxGeometry width="50" height="50" relative="1" as="geometry">
            <mxPoint x="1870" y="200" as="sourcePoint" />
            <mxPoint x="1920" y="150" as="targetPoint" />
          </mxGeometry>
        </mxCell>
        <mxCell id="KKkGE1eCo8rrcUPM3MvS-69" value="Web app participation" style="text;html=1;strokeColor=none;fillColor=none;align=center;verticalAlign=middle;whiteSpace=wrap;rounded=0;" parent="1" vertex="1">
          <mxGeometry x="1820" y="120" width="140" height="22.4" as="geometry" />
        </mxCell>
        <mxCell id="KKkGE1eCo8rrcUPM3MvS-73" value="" style="edgeStyle=orthogonalEdgeStyle;rounded=0;orthogonalLoop=1;jettySize=auto;html=1;startArrow=none;startFill=0;endArrow=classic;endFill=1;" parent="1" source="KKkGE1eCo8rrcUPM3MvS-70" target="KKkGE1eCo8rrcUPM3MvS-72" edge="1">
          <mxGeometry relative="1" as="geometry" />
        </mxCell>
        <mxCell id="KKkGE1eCo8rrcUPM3MvS-83" value="" style="edgeStyle=orthogonalEdgeStyle;rounded=0;orthogonalLoop=1;jettySize=auto;html=1;startArrow=none;startFill=0;endArrow=classic;endFill=1;dashed=1;entryX=0.5;entryY=0;entryDx=0;entryDy=0;" parent="1" source="KKkGE1eCo8rrcUPM3MvS-70" target="KKkGE1eCo8rrcUPM3MvS-1" edge="1">
          <mxGeometry relative="1" as="geometry">
            <mxPoint x="520" y="319" as="targetPoint" />
            <Array as="points">
              <mxPoint x="2020" y="320" />
              <mxPoint x="420" y="320" />
            </Array>
          </mxGeometry>
        </mxCell>
        <mxCell id="KKkGE1eCo8rrcUPM3MvS-87" style="edgeStyle=orthogonalEdgeStyle;rounded=0;orthogonalLoop=1;jettySize=auto;html=1;exitX=0.5;exitY=1;exitDx=0;exitDy=0;startArrow=none;startFill=0;endArrow=classic;endFill=1;strokeColor=#000000;dashed=1;entryX=0;entryY=0.5;entryDx=0;entryDy=0;" parent="1" source="KKkGE1eCo8rrcUPM3MvS-70" target="KKkGE1eCo8rrcUPM3MvS-89" edge="1">
          <mxGeometry relative="1" as="geometry">
            <mxPoint x="1830" y="360" as="targetPoint" />
            <Array as="points">
              <mxPoint x="2020" y="400" />
            </Array>
          </mxGeometry>
        </mxCell>
        <mxCell id="KKkGE1eCo8rrcUPM3MvS-93" style="edgeStyle=orthogonalEdgeStyle;rounded=0;orthogonalLoop=1;jettySize=auto;html=1;exitX=0.5;exitY=1;exitDx=0;exitDy=0;entryX=0;entryY=0.5;entryDx=0;entryDy=0;dashed=1;startArrow=none;startFill=0;endArrow=classic;endFill=1;strokeColor=#000000;" parent="1" source="KKkGE1eCo8rrcUPM3MvS-70" target="KKkGE1eCo8rrcUPM3MvS-91" edge="1">
          <mxGeometry relative="1" as="geometry" />
        </mxCell>
        <UserObject label="&lt;span style=&quot;font-size: 24px&quot;&gt;10&lt;/span&gt;" link="https://docs.reach.sh/tut-10.html" id="KKkGE1eCo8rrcUPM3MvS-70">
          <mxCell style="ellipse;whiteSpace=wrap;html=1;aspect=fixed;" parent="1" vertex="1">
            <mxGeometry x="1980" y="200" width="80" height="80" as="geometry" />
          </mxCell>
        </UserObject>
        <UserObject label="&lt;span style=&quot;font-size: 24px&quot;&gt;11&lt;/span&gt;" link="https://docs.reach.sh/tut-7-rpc.html" id="KKkGE1eCo8rrcUPM3MvS-72">
          <mxCell style="ellipse;whiteSpace=wrap;html=1;aspect=fixed;" parent="1" vertex="1">
            <mxGeometry x="2140" y="200" width="80" height="80" as="geometry" />
          </mxCell>
        </UserObject>
        <mxCell id="KKkGE1eCo8rrcUPM3MvS-74" value="&lt;span style=&quot;font-size: 24px&quot;&gt;Next&lt;/span&gt;" style="text;html=1;strokeColor=none;fillColor=none;align=center;verticalAlign=middle;whiteSpace=wrap;rounded=0;" parent="1" vertex="1">
          <mxGeometry x="1940" y="160" width="150" height="20" as="geometry" />
        </mxCell>
        <mxCell id="KKkGE1eCo8rrcUPM3MvS-76" value="" style="endArrow=none;dashed=1;html=1;dashPattern=1 3;strokeWidth=2;" parent="1" edge="1">
          <mxGeometry width="50" height="50" relative="1" as="geometry">
            <mxPoint x="2020" y="200" as="sourcePoint" />
            <mxPoint x="2070" y="150" as="targetPoint" />
          </mxGeometry>
        </mxCell>
        <mxCell id="KKkGE1eCo8rrcUPM3MvS-77" value="Where to next?" style="text;html=1;strokeColor=none;fillColor=none;align=center;verticalAlign=middle;whiteSpace=wrap;rounded=0;" parent="1" vertex="1">
          <mxGeometry x="1980" y="120" width="140" height="22.4" as="geometry" />
        </mxCell>
        <mxCell id="KKkGE1eCo8rrcUPM3MvS-78" value="&lt;span style=&quot;font-size: 24px&quot;&gt;RPC&lt;/span&gt;" style="text;html=1;strokeColor=none;fillColor=none;align=center;verticalAlign=middle;whiteSpace=wrap;rounded=0;" parent="1" vertex="1">
          <mxGeometry x="2110" y="160" width="150" height="20" as="geometry" />
        </mxCell>
        <mxCell id="KKkGE1eCo8rrcUPM3MvS-79" value="RPS in Python" style="text;html=1;strokeColor=none;fillColor=none;align=center;verticalAlign=middle;whiteSpace=wrap;rounded=0;" parent="1" vertex="1">
          <mxGeometry x="2120" y="120" width="140" height="22.4" as="geometry" />
        </mxCell>
        <mxCell id="KKkGE1eCo8rrcUPM3MvS-81" value="&lt;span style=&quot;background-color: rgb(0 , 102 , 204)&quot;&gt;&lt;font color=&quot;#ffffff&quot;&gt;Tutorial Veteran&lt;/font&gt;&lt;/span&gt;" style="rounded=1;whiteSpace=wrap;html=1;fillColor=#0066CC;" parent="1" vertex="1">
          <mxGeometry x="1960" y="70" width="120" height="30" as="geometry" />
        </mxCell>
        <UserObject label="&lt;font style=&quot;font-size: 24px&quot;&gt;&lt;b&gt;Workshops&lt;/b&gt;&lt;/font&gt;" link="https://docs.reach.sh/workshop.html" id="KKkGE1eCo8rrcUPM3MvS-85">
          <mxCell style="text;html=1;strokeColor=none;fillColor=none;align=left;verticalAlign=middle;whiteSpace=wrap;rounded=0;" parent="1" vertex="1">
            <mxGeometry x="230" y="310" width="160" height="20" as="geometry" />
          </mxCell>
        </UserObject>
        <UserObject label="&lt;span style=&quot;font-size: 24px&quot;&gt;G&lt;/span&gt;" link="https://docs.reach.sh/guide.html" id="KKkGE1eCo8rrcUPM3MvS-89">
          <mxCell style="ellipse;whiteSpace=wrap;html=1;aspect=fixed;" parent="1" vertex="1">
            <mxGeometry x="2140" y="360" width="80" height="80" as="geometry" />
          </mxCell>
        </UserObject>
        <UserObject label="&lt;span style=&quot;font-size: 24px&quot;&gt;R&lt;/span&gt;" link="https://docs.reach.sh/ref.html" id="KKkGE1eCo8rrcUPM3MvS-91">
          <mxCell style="ellipse;whiteSpace=wrap;html=1;aspect=fixed;" parent="1" vertex="1">
            <mxGeometry x="2140" y="520" width="80" height="80" as="geometry" />
          </mxCell>
        </UserObject>
        <mxCell id="KKkGE1eCo8rrcUPM3MvS-94" value="&lt;span style=&quot;font-size: 24px&quot;&gt;&lt;b&gt;Guide&lt;/b&gt;&lt;/span&gt;" style="text;html=1;strokeColor=none;fillColor=none;align=center;verticalAlign=middle;whiteSpace=wrap;rounded=0;" parent="1" vertex="1">
          <mxGeometry x="2110" y="330" width="150" height="20" as="geometry" />
        </mxCell>
        <mxCell id="KKkGE1eCo8rrcUPM3MvS-95" value="&lt;span style=&quot;font-size: 24px&quot;&gt;&lt;b&gt;Reference&lt;/b&gt;&lt;/span&gt;" style="text;html=1;strokeColor=none;fillColor=none;align=center;verticalAlign=middle;whiteSpace=wrap;rounded=0;" parent="1" vertex="1">
          <mxGeometry x="2110" y="490" width="150" height="20" as="geometry" />
        </mxCell>
        <UserObject label="&lt;span style=&quot;font-size: 24px&quot;&gt;I&lt;br&gt;&lt;/span&gt;" link="https://docs.reach.sh/ref.html" id="KKkGE1eCo8rrcUPM3MvS-96">
          <mxCell style="ellipse;whiteSpace=wrap;html=1;aspect=fixed;" parent="1" vertex="1">
            <mxGeometry x="2140" y="680" width="80" height="80" as="geometry" />
          </mxCell>
        </UserObject>
        <mxCell id="KKkGE1eCo8rrcUPM3MvS-98" value="&lt;span style=&quot;font-size: 24px&quot;&gt;Index&lt;/span&gt;" style="text;html=1;strokeColor=none;fillColor=none;align=center;verticalAlign=middle;whiteSpace=wrap;rounded=0;" parent="1" vertex="1">
          <mxGeometry x="2110" y="650" width="150" height="20" as="geometry" />
        </mxCell>
        <mxCell id="KKkGE1eCo8rrcUPM3MvS-149" value="" style="edgeStyle=orthogonalEdgeStyle;rounded=0;orthogonalLoop=1;jettySize=auto;html=1;startArrow=none;startFill=0;endArrow=classic;endFill=1;strokeColor=#000000;" parent="1" source="KKkGE1eCo8rrcUPM3MvS-99" target="KKkGE1eCo8rrcUPM3MvS-101" edge="1">
          <mxGeometry relative="1" as="geometry" />
        </mxCell>
        <UserObject label="&lt;font style=&quot;font-size: 24px&quot; color=&quot;#009900&quot;&gt;4&lt;/font&gt;" link="https://docs.reach.sh/workshop-fomo.html" id="KKkGE1eCo8rrcUPM3MvS-99">
          <mxCell style="ellipse;whiteSpace=wrap;html=1;aspect=fixed;strokeColor=#009900;" parent="1" vertex="1">
            <mxGeometry x="540" y="840" width="80" height="80" as="geometry" />
          </mxCell>
        </UserObject>
        <mxCell id="KKkGE1eCo8rrcUPM3MvS-172" value="" style="edgeStyle=orthogonalEdgeStyle;rounded=0;orthogonalLoop=1;jettySize=auto;html=1;startArrow=none;startFill=0;endArrow=classic;endFill=1;strokeColor=#000000;" parent="1" source="KKkGE1eCo8rrcUPM3MvS-101" edge="1">
          <mxGeometry relative="1" as="geometry">
            <mxPoint x="580" y="1160" as="targetPoint" />
          </mxGeometry>
        </mxCell>
        <UserObject label="&lt;font color=&quot;#009900&quot;&gt;&lt;span style=&quot;font-size: 24px&quot;&gt;5.1&lt;/span&gt;&lt;/font&gt;" link="https://docs.reach.sh/workshop-fomo-generalized.html" id="KKkGE1eCo8rrcUPM3MvS-101">
          <mxCell style="ellipse;whiteSpace=wrap;html=1;aspect=fixed;strokeColor=#009900;" parent="1" vertex="1">
            <mxGeometry x="540" y="1000" width="80" height="80" as="geometry" />
          </mxCell>
        </UserObject>
        <mxCell id="KKkGE1eCo8rrcUPM3MvS-107" value="" style="edgeStyle=orthogonalEdgeStyle;rounded=0;orthogonalLoop=1;jettySize=auto;html=1;startArrow=none;startFill=0;endArrow=classic;endFill=1;strokeColor=#000000;" parent="1" edge="1">
          <mxGeometry relative="1" as="geometry">
            <mxPoint x="620" y="1200" as="sourcePoint" />
            <mxPoint x="700" y="1200" as="targetPoint" />
          </mxGeometry>
        </mxCell>
        <mxCell id="KKkGE1eCo8rrcUPM3MvS-114" value="" style="edgeStyle=orthogonalEdgeStyle;rounded=0;orthogonalLoop=1;jettySize=auto;html=1;startArrow=none;startFill=0;endArrow=classic;endFill=1;strokeColor=#000000;" parent="1" target="KKkGE1eCo8rrcUPM3MvS-113" edge="1">
          <mxGeometry relative="1" as="geometry">
            <mxPoint x="780" y="1200" as="sourcePoint" />
          </mxGeometry>
        </mxCell>
        <mxCell id="KKkGE1eCo8rrcUPM3MvS-161" value="" style="edgeStyle=orthogonalEdgeStyle;rounded=0;orthogonalLoop=1;jettySize=auto;html=1;startArrow=none;startFill=0;endArrow=classic;endFill=1;" parent="1" source="KKkGE1eCo8rrcUPM3MvS-113" target="KKkGE1eCo8rrcUPM3MvS-160" edge="1">
          <mxGeometry relative="1" as="geometry" />
        </mxCell>
        <UserObject label="&lt;font style=&quot;font-size: 24px&quot;&gt;6&lt;/font&gt;" link="https://docs.reach.sh/workshop-rps-fair.html" id="KKkGE1eCo8rrcUPM3MvS-113">
          <mxCell style="ellipse;whiteSpace=wrap;html=1;aspect=fixed;" parent="1" vertex="1">
            <mxGeometry x="860" y="1160" width="80" height="80" as="geometry" />
          </mxCell>
        </UserObject>
        <mxCell id="KKkGE1eCo8rrcUPM3MvS-118" value="" style="edgeStyle=orthogonalEdgeStyle;rounded=0;orthogonalLoop=1;jettySize=auto;html=1;startArrow=none;startFill=0;endArrow=classic;endFill=1;strokeColor=#000000;" parent="1" edge="1">
          <mxGeometry relative="1" as="geometry">
            <mxPoint x="900" y="440" as="sourcePoint" />
            <mxPoint x="900" y="520" as="targetPoint" />
          </mxGeometry>
        </mxCell>
        <mxCell id="KKkGE1eCo8rrcUPM3MvS-120" value="" style="edgeStyle=orthogonalEdgeStyle;rounded=0;orthogonalLoop=1;jettySize=auto;html=1;startArrow=none;startFill=0;endArrow=classic;endFill=1;strokeColor=#000000;" parent="1" edge="1">
          <mxGeometry relative="1" as="geometry">
            <mxPoint x="900" y="600" as="sourcePoint" />
            <mxPoint x="900" y="680" as="targetPoint" />
          </mxGeometry>
        </mxCell>
        <mxCell id="KKkGE1eCo8rrcUPM3MvS-123" value="" style="edgeStyle=orthogonalEdgeStyle;rounded=0;orthogonalLoop=1;jettySize=auto;html=1;startArrow=none;startFill=0;endArrow=classic;endFill=1;strokeColor=#000000;" parent="1" edge="1">
          <mxGeometry relative="1" as="geometry">
            <mxPoint x="900" y="760" as="sourcePoint" />
            <mxPoint x="900" y="840" as="targetPoint" />
          </mxGeometry>
        </mxCell>
        <mxCell id="KKkGE1eCo8rrcUPM3MvS-126" value="" style="edgeStyle=orthogonalEdgeStyle;rounded=0;orthogonalLoop=1;jettySize=auto;html=1;startArrow=none;startFill=0;endArrow=classic;endFill=1;strokeColor=#000000;" parent="1" edge="1">
          <mxGeometry relative="1" as="geometry">
            <mxPoint x="900" y="920" as="sourcePoint" />
            <mxPoint x="900" y="1000" as="targetPoint" />
          </mxGeometry>
        </mxCell>
        <mxCell id="KKkGE1eCo8rrcUPM3MvS-127" value="" style="edgeStyle=orthogonalEdgeStyle;rounded=0;orthogonalLoop=1;jettySize=auto;html=1;startArrow=none;startFill=0;endArrow=classic;endFill=1;strokeColor=#000000;" parent="1" target="KKkGE1eCo8rrcUPM3MvS-113" edge="1">
          <mxGeometry relative="1" as="geometry">
            <mxPoint x="900" y="1080" as="sourcePoint" />
          </mxGeometry>
        </mxCell>
        <mxCell id="KKkGE1eCo8rrcUPM3MvS-128" value="&lt;span style=&quot;font-size: 24px&quot;&gt;Starter&lt;/span&gt;" style="text;html=1;strokeColor=none;fillColor=none;align=center;verticalAlign=middle;whiteSpace=wrap;rounded=0;" parent="1" vertex="1">
          <mxGeometry x="650" y="870" width="200" height="20" as="geometry" />
        </mxCell>
        <mxCell id="KKkGE1eCo8rrcUPM3MvS-129" value="&lt;span style=&quot;font-size: 24px&quot;&gt;&lt;b&gt;&lt;font color=&quot;#009900&quot;&gt;FOMO&lt;/font&gt;&lt;/b&gt;&lt;/span&gt;" style="text;html=1;strokeColor=none;fillColor=none;align=center;verticalAlign=middle;whiteSpace=wrap;rounded=0;" parent="1" vertex="1">
          <mxGeometry x="480" y="770" width="200" height="20" as="geometry" />
        </mxCell>
        <mxCell id="KKkGE1eCo8rrcUPM3MvS-133" value="&lt;span style=&quot;font-size: 24px&quot;&gt;&lt;b&gt;FUNDS&lt;/b&gt;&lt;/span&gt;" style="text;html=1;strokeColor=none;fillColor=none;align=center;verticalAlign=middle;whiteSpace=wrap;rounded=0;" parent="1" vertex="1">
          <mxGeometry x="480" y="330" width="200" height="20" as="geometry" />
        </mxCell>
        <mxCell id="KKkGE1eCo8rrcUPM3MvS-137" value="" style="edgeStyle=orthogonalEdgeStyle;rounded=0;orthogonalLoop=1;jettySize=auto;html=1;startArrow=none;startFill=0;endArrow=classic;endFill=1;strokeColor=#000000;" parent="1" edge="1">
          <mxGeometry relative="1" as="geometry">
            <mxPoint x="1500" y="400" as="sourcePoint" />
            <mxPoint x="1420" y="400" as="targetPoint" />
          </mxGeometry>
        </mxCell>
        <mxCell id="KKkGE1eCo8rrcUPM3MvS-139" value="" style="edgeStyle=orthogonalEdgeStyle;rounded=0;orthogonalLoop=1;jettySize=auto;html=1;startArrow=none;startFill=0;endArrow=classic;endFill=1;strokeColor=#000000;" parent="1" edge="1">
          <mxGeometry relative="1" as="geometry">
            <mxPoint x="1340" y="400" as="sourcePoint" />
            <mxPoint x="1260" y="400" as="targetPoint" />
          </mxGeometry>
        </mxCell>
        <mxCell id="KKkGE1eCo8rrcUPM3MvS-141" value="" style="edgeStyle=orthogonalEdgeStyle;rounded=0;orthogonalLoop=1;jettySize=auto;html=1;startArrow=none;startFill=0;endArrow=classic;endFill=1;strokeColor=#000000;" parent="1" edge="1">
          <mxGeometry relative="1" as="geometry">
            <mxPoint x="1180" y="400" as="sourcePoint" />
            <mxPoint x="1100" y="400" as="targetPoint" />
          </mxGeometry>
        </mxCell>
        <mxCell id="KKkGE1eCo8rrcUPM3MvS-143" value="" style="edgeStyle=orthogonalEdgeStyle;rounded=0;orthogonalLoop=1;jettySize=auto;html=1;startArrow=none;startFill=0;endArrow=classic;endFill=1;strokeColor=#000000;" parent="1" edge="1">
          <mxGeometry relative="1" as="geometry">
            <mxPoint x="1020" y="400" as="sourcePoint" />
            <mxPoint x="940" y="400" as="targetPoint" />
          </mxGeometry>
        </mxCell>
        <UserObject label="&lt;span style=&quot;font-size: 24px&quot;&gt;&lt;i&gt;&lt;font color=&quot;#0066cc&quot;&gt;participant classes&lt;/font&gt;&lt;/i&gt;&lt;/span&gt;" link="https://docs.reach.sh/ref-model.html#%28tech._participant._clas%29" id="KKkGE1eCo8rrcUPM3MvS-146">
          <mxCell style="text;html=1;strokeColor=none;fillColor=none;align=left;verticalAlign=middle;whiteSpace=wrap;rounded=0;" parent="1" vertex="1">
            <mxGeometry x="650" y="770" width="240" height="20" as="geometry" />
          </mxCell>
        </UserObject>
        <mxCell id="KKkGE1eCo8rrcUPM3MvS-209" value="" style="edgeStyle=orthogonalEdgeStyle;rounded=0;orthogonalLoop=1;jettySize=auto;html=1;startArrow=none;startFill=0;endArrow=classic;endFill=1;strokeColor=#000000;" parent="1" source="KKkGE1eCo8rrcUPM3MvS-160" edge="1">
          <mxGeometry relative="1" as="geometry">
            <mxPoint x="900" y="1480" as="targetPoint" />
          </mxGeometry>
        </mxCell>
        <UserObject label="&lt;font style=&quot;font-size: 24px&quot;&gt;7&lt;/font&gt;" link="https://docs.reach.sh/workshop-rps-eff.html" id="KKkGE1eCo8rrcUPM3MvS-160">
          <mxCell style="ellipse;whiteSpace=wrap;html=1;aspect=fixed;" parent="1" vertex="1">
            <mxGeometry x="860" y="1320" width="80" height="80" as="geometry" />
          </mxCell>
        </UserObject>
        <mxCell id="KKkGE1eCo8rrcUPM3MvS-163" value="&lt;span style=&quot;font-size: 24px&quot;&gt;Efficient&lt;/span&gt;" style="text;html=1;strokeColor=none;fillColor=none;align=center;verticalAlign=middle;whiteSpace=wrap;rounded=0;" parent="1" vertex="1">
          <mxGeometry x="980" y="1350" width="130" height="20" as="geometry" />
        </mxCell>
        <mxCell id="KKkGE1eCo8rrcUPM3MvS-174" value="" style="edgeStyle=orthogonalEdgeStyle;rounded=0;orthogonalLoop=1;jettySize=auto;html=1;startArrow=none;startFill=0;endArrow=classic;endFill=1;strokeColor=#000000;" parent="1" target="KKkGE1eCo8rrcUPM3MvS-173" edge="1">
          <mxGeometry relative="1" as="geometry">
            <mxPoint x="580" y="1240" as="sourcePoint" />
          </mxGeometry>
        </mxCell>
        <mxCell id="KKkGE1eCo8rrcUPM3MvS-178" value="" style="edgeStyle=orthogonalEdgeStyle;rounded=0;orthogonalLoop=1;jettySize=auto;html=1;startArrow=classic;startFill=1;endArrow=none;endFill=0;strokeColor=#000000;" parent="1" edge="1">
          <mxGeometry relative="1" as="geometry">
            <mxPoint x="540" y="1200" as="sourcePoint" />
            <mxPoint x="460" y="1200" as="targetPoint" />
          </mxGeometry>
        </mxCell>
        <mxCell id="KKkGE1eCo8rrcUPM3MvS-176" value="" style="edgeStyle=orthogonalEdgeStyle;rounded=0;orthogonalLoop=1;jettySize=auto;html=1;startArrow=none;startFill=0;endArrow=classic;endFill=1;strokeColor=#000000;" parent="1" source="KKkGE1eCo8rrcUPM3MvS-173" target="KKkGE1eCo8rrcUPM3MvS-175" edge="1">
          <mxGeometry relative="1" as="geometry" />
        </mxCell>
        <mxCell id="KKkGE1eCo8rrcUPM3MvS-186" value="" style="edgeStyle=orthogonalEdgeStyle;rounded=0;orthogonalLoop=1;jettySize=auto;html=1;startArrow=none;startFill=0;endArrow=classic;endFill=1;strokeColor=#000000;" parent="1" source="KKkGE1eCo8rrcUPM3MvS-173" edge="1">
          <mxGeometry relative="1" as="geometry">
            <mxPoint x="700" y="1360" as="targetPoint" />
          </mxGeometry>
        </mxCell>
        <UserObject label="&lt;font style=&quot;font-size: 24px&quot; color=&quot;#009900&quot;&gt;5.2&lt;br&gt;&lt;/font&gt;" link="https://docs.reach.sh/workshop-fomo-generalized.html" id="KKkGE1eCo8rrcUPM3MvS-173">
          <mxCell style="ellipse;whiteSpace=wrap;html=1;aspect=fixed;strokeColor=#009900;" parent="1" vertex="1">
            <mxGeometry x="540" y="1320" width="80" height="80" as="geometry" />
          </mxCell>
        </UserObject>
        <mxCell id="KKkGE1eCo8rrcUPM3MvS-182" value="" style="edgeStyle=orthogonalEdgeStyle;rounded=0;orthogonalLoop=1;jettySize=auto;html=1;startArrow=none;startFill=0;endArrow=classic;endFill=1;strokeColor=#000000;" parent="1" source="KKkGE1eCo8rrcUPM3MvS-175" edge="1">
          <mxGeometry relative="1" as="geometry">
            <mxPoint x="700" y="1520" as="targetPoint" />
          </mxGeometry>
        </mxCell>
        <mxCell id="KKkGE1eCo8rrcUPM3MvS-214" value="" style="edgeStyle=orthogonalEdgeStyle;rounded=0;orthogonalLoop=1;jettySize=auto;html=1;startArrow=none;startFill=0;endArrow=classic;endFill=1;strokeColor=#000000;" parent="1" source="KKkGE1eCo8rrcUPM3MvS-175" edge="1">
          <mxGeometry relative="1" as="geometry">
            <mxPoint x="580" y="1640" as="targetPoint" />
          </mxGeometry>
        </mxCell>
        <UserObject label="&lt;font style=&quot;font-size: 24px&quot; color=&quot;#009900&quot;&gt;5.3&lt;br&gt;&lt;/font&gt;" link="https://docs.reach.sh/workshop-fomo-generalized.html" id="KKkGE1eCo8rrcUPM3MvS-175">
          <mxCell style="ellipse;whiteSpace=wrap;html=1;aspect=fixed;strokeColor=#009900;" parent="1" vertex="1">
            <mxGeometry x="540" y="1480" width="80" height="80" as="geometry" />
          </mxCell>
        </UserObject>
        <mxCell id="KKkGE1eCo8rrcUPM3MvS-180" value="&lt;span style=&quot;font-size: 24px&quot;&gt;Rental agreement&lt;/span&gt;" style="text;html=1;strokeColor=none;fillColor=none;align=center;verticalAlign=middle;whiteSpace=wrap;rounded=0;" parent="1" vertex="1">
          <mxGeometry x="964" y="1670" width="250" height="20" as="geometry" />
        </mxCell>
        <mxCell id="KKkGE1eCo8rrcUPM3MvS-188" value="" style="edgeStyle=orthogonalEdgeStyle;rounded=0;orthogonalLoop=1;jettySize=auto;html=1;startArrow=none;startFill=0;endArrow=classic;endFill=1;strokeColor=#000000;" parent="1" edge="1">
          <mxGeometry relative="1" as="geometry">
            <mxPoint x="740" y="1320" as="sourcePoint" />
            <mxPoint x="740" y="1240" as="targetPoint" />
          </mxGeometry>
        </mxCell>
        <mxCell id="KKkGE1eCo8rrcUPM3MvS-190" value="" style="edgeStyle=orthogonalEdgeStyle;rounded=0;orthogonalLoop=1;jettySize=auto;html=1;startArrow=classic;startFill=1;endArrow=none;endFill=0;strokeColor=#000000;" parent="1" edge="1">
          <mxGeometry relative="1" as="geometry">
            <mxPoint x="740" y="1400" as="sourcePoint" />
            <mxPoint x="740" y="1480" as="targetPoint" />
          </mxGeometry>
        </mxCell>
        <mxCell id="KKkGE1eCo8rrcUPM3MvS-196" value="" style="edgeStyle=orthogonalEdgeStyle;rounded=0;orthogonalLoop=1;jettySize=auto;html=1;startArrow=none;startFill=0;endArrow=classic;endFill=1;strokeColor=#000000;" parent="1" edge="1">
          <mxGeometry relative="1" as="geometry">
            <mxPoint x="860" y="1680" as="sourcePoint" />
            <mxPoint x="780" y="1680" as="targetPoint" />
          </mxGeometry>
        </mxCell>
        <mxCell id="KKkGE1eCo8rrcUPM3MvS-198" value="" style="edgeStyle=orthogonalEdgeStyle;rounded=0;orthogonalLoop=1;jettySize=auto;html=1;startArrow=none;startFill=0;endArrow=classic;endFill=1;strokeColor=#000000;" parent="1" edge="1">
          <mxGeometry relative="1" as="geometry">
            <mxPoint x="700" y="1680" as="sourcePoint" />
            <mxPoint x="620" y="1680" as="targetPoint" />
          </mxGeometry>
        </mxCell>
        <mxCell id="KKkGE1eCo8rrcUPM3MvS-200" value="" style="edgeStyle=orthogonalEdgeStyle;rounded=0;orthogonalLoop=1;jettySize=auto;html=1;startArrow=none;startFill=0;endArrow=classic;endFill=1;strokeColor=#000000;" parent="1" edge="1">
          <mxGeometry relative="1" as="geometry">
            <mxPoint x="540" y="1680" as="sourcePoint" />
            <mxPoint x="460.0000000000002" y="1680" as="targetPoint" />
          </mxGeometry>
        </mxCell>
        <mxCell id="KKkGE1eCo8rrcUPM3MvS-202" value="" style="edgeStyle=orthogonalEdgeStyle;rounded=0;orthogonalLoop=1;jettySize=auto;html=1;startArrow=classic;startFill=1;endArrow=none;endFill=0;strokeColor=#000000;" parent="1" edge="1">
          <mxGeometry relative="1" as="geometry">
            <mxPoint x="420" y="1560" as="targetPoint" />
            <mxPoint x="420" y="1640" as="sourcePoint" />
          </mxGeometry>
        </mxCell>
        <mxCell id="KKkGE1eCo8rrcUPM3MvS-216" value="" style="edgeStyle=orthogonalEdgeStyle;rounded=0;orthogonalLoop=1;jettySize=auto;html=1;startArrow=none;startFill=0;endArrow=classic;endFill=1;strokeColor=#000000;" parent="1" target="KKkGE1eCo8rrcUPM3MvS-215" edge="1">
          <mxGeometry relative="1" as="geometry">
            <mxPoint x="420.0000000000002" y="1720" as="sourcePoint" />
          </mxGeometry>
        </mxCell>
        <mxCell id="KKkGE1eCo8rrcUPM3MvS-204" value="" style="edgeStyle=orthogonalEdgeStyle;rounded=0;orthogonalLoop=1;jettySize=auto;html=1;startArrow=classic;startFill=1;endArrow=none;endFill=0;strokeColor=#000000;" parent="1" edge="1">
          <mxGeometry relative="1" as="geometry">
            <mxPoint x="420" y="1480" as="sourcePoint" />
            <mxPoint x="420" y="1400" as="targetPoint" />
          </mxGeometry>
        </mxCell>
        <mxCell id="KKkGE1eCo8rrcUPM3MvS-206" value="" style="edgeStyle=orthogonalEdgeStyle;rounded=0;orthogonalLoop=1;jettySize=auto;html=1;startArrow=classic;startFill=1;endArrow=none;endFill=0;strokeColor=#000000;" parent="1" edge="1">
          <mxGeometry relative="1" as="geometry">
            <mxPoint x="420" y="1320" as="sourcePoint" />
            <mxPoint x="420" y="1240" as="targetPoint" />
          </mxGeometry>
        </mxCell>
        <mxCell id="KKkGE1eCo8rrcUPM3MvS-211" value="" style="edgeStyle=orthogonalEdgeStyle;rounded=0;orthogonalLoop=1;jettySize=auto;html=1;startArrow=none;startFill=0;endArrow=classic;endFill=1;strokeColor=#000000;" parent="1" edge="1">
          <mxGeometry relative="1" as="geometry">
            <mxPoint x="900" y="1560" as="sourcePoint" />
            <mxPoint x="900" y="1640" as="targetPoint" />
          </mxGeometry>
        </mxCell>
        <mxCell id="KKkGE1eCo8rrcUPM3MvS-218" value="" style="edgeStyle=orthogonalEdgeStyle;rounded=0;orthogonalLoop=1;jettySize=auto;html=1;startArrow=none;startFill=0;endArrow=classic;endFill=1;strokeColor=#000000;" parent="1" source="KKkGE1eCo8rrcUPM3MvS-215" target="KKkGE1eCo8rrcUPM3MvS-217" edge="1">
          <mxGeometry relative="1" as="geometry" />
        </mxCell>
        <UserObject label="&lt;span style=&quot;font-size: 24px&quot;&gt;9&lt;/span&gt;" link="https://docs.reach.sh/workshop-abstract-simul.html" id="KKkGE1eCo8rrcUPM3MvS-215">
          <mxCell style="ellipse;whiteSpace=wrap;html=1;aspect=fixed;" parent="1" vertex="1">
            <mxGeometry x="380" y="1800" width="80" height="80" as="geometry" />
          </mxCell>
        </UserObject>
        <mxCell id="KKkGE1eCo8rrcUPM3MvS-220" value="" style="edgeStyle=orthogonalEdgeStyle;rounded=0;orthogonalLoop=1;jettySize=auto;html=1;startArrow=none;startFill=0;endArrow=classic;endFill=1;strokeColor=#000000;" parent="1" source="KKkGE1eCo8rrcUPM3MvS-217" target="KKkGE1eCo8rrcUPM3MvS-219" edge="1">
          <mxGeometry relative="1" as="geometry" />
        </mxCell>
        <UserObject label="&lt;span style=&quot;font-size: 24px&quot;&gt;10&lt;/span&gt;" link="https://docs.reach.sh/workshop-guardian-account.html" id="KKkGE1eCo8rrcUPM3MvS-217">
          <mxCell style="ellipse;whiteSpace=wrap;html=1;aspect=fixed;" parent="1" vertex="1">
            <mxGeometry x="380" y="1960" width="80" height="80" as="geometry" />
          </mxCell>
        </UserObject>
        <mxCell id="KKkGE1eCo8rrcUPM3MvS-230" value="" style="edgeStyle=orthogonalEdgeStyle;rounded=0;orthogonalLoop=1;jettySize=auto;html=1;startArrow=none;startFill=0;endArrow=classic;endFill=1;strokeColor=#000000;" parent="1" source="KKkGE1eCo8rrcUPM3MvS-219" target="KKkGE1eCo8rrcUPM3MvS-229" edge="1">
          <mxGeometry relative="1" as="geometry" />
        </mxCell>
        <UserObject label="&lt;span style=&quot;font-size: 24px&quot;&gt;11&lt;/span&gt;" link="https://docs.reach.sh/workshop-utility.html" id="KKkGE1eCo8rrcUPM3MvS-219">
          <mxCell style="ellipse;whiteSpace=wrap;html=1;aspect=fixed;" parent="1" vertex="1">
            <mxGeometry x="380" y="2120" width="80" height="80" as="geometry" />
          </mxCell>
        </UserObject>
        <mxCell id="KKkGE1eCo8rrcUPM3MvS-232" value="" style="edgeStyle=orthogonalEdgeStyle;rounded=0;orthogonalLoop=1;jettySize=auto;html=1;startArrow=none;startFill=0;endArrow=classic;endFill=1;strokeColor=#000000;" parent="1" source="KKkGE1eCo8rrcUPM3MvS-229" target="KKkGE1eCo8rrcUPM3MvS-231" edge="1">
          <mxGeometry relative="1" as="geometry" />
        </mxCell>
        <UserObject label="&lt;span style=&quot;font-size: 24px&quot;&gt;12&lt;/span&gt;" link="https://docs.reach.sh/workshop-utility.html" id="KKkGE1eCo8rrcUPM3MvS-229">
          <mxCell style="ellipse;whiteSpace=wrap;html=1;aspect=fixed;" parent="1" vertex="1">
            <mxGeometry x="380" y="2280" width="80" height="80" as="geometry" />
          </mxCell>
        </UserObject>
        <mxCell id="KKkGE1eCo8rrcUPM3MvS-234" value="" style="edgeStyle=orthogonalEdgeStyle;rounded=0;orthogonalLoop=1;jettySize=auto;html=1;startArrow=none;startFill=0;endArrow=classic;endFill=1;strokeColor=#000000;" parent="1" source="KKkGE1eCo8rrcUPM3MvS-231" target="KKkGE1eCo8rrcUPM3MvS-233" edge="1">
          <mxGeometry relative="1" as="geometry" />
        </mxCell>
        <UserObject label="&lt;span style=&quot;font-size: 24px&quot;&gt;13&lt;/span&gt;" id="KKkGE1eCo8rrcUPM3MvS-231">
          <mxCell style="ellipse;whiteSpace=wrap;html=1;aspect=fixed;" parent="1" vertex="1">
            <mxGeometry x="380" y="2440" width="80" height="80" as="geometry" />
          </mxCell>
        </UserObject>
        <mxCell id="KKkGE1eCo8rrcUPM3MvS-236" value="" style="edgeStyle=orthogonalEdgeStyle;rounded=0;orthogonalLoop=1;jettySize=auto;html=1;startArrow=none;startFill=0;endArrow=classic;endFill=1;strokeColor=#000000;" parent="1" source="KKkGE1eCo8rrcUPM3MvS-233" target="KKkGE1eCo8rrcUPM3MvS-235" edge="1">
          <mxGeometry relative="1" as="geometry" />
        </mxCell>
        <UserObject label="&lt;span style=&quot;font-size: 24px&quot;&gt;14&lt;/span&gt;" id="KKkGE1eCo8rrcUPM3MvS-233">
          <mxCell style="ellipse;whiteSpace=wrap;html=1;aspect=fixed;" parent="1" vertex="1">
            <mxGeometry x="380" y="2600" width="80" height="80" as="geometry" />
          </mxCell>
        </UserObject>
        <mxCell id="KKkGE1eCo8rrcUPM3MvS-238" value="" style="edgeStyle=orthogonalEdgeStyle;rounded=0;orthogonalLoop=1;jettySize=auto;html=1;startArrow=none;startFill=0;endArrow=classic;endFill=1;strokeColor=#000000;" parent="1" source="KKkGE1eCo8rrcUPM3MvS-235" target="KKkGE1eCo8rrcUPM3MvS-237" edge="1">
          <mxGeometry relative="1" as="geometry" />
        </mxCell>
        <UserObject label="&lt;span style=&quot;font-size: 24px&quot;&gt;15&lt;/span&gt;" id="KKkGE1eCo8rrcUPM3MvS-235">
          <mxCell style="ellipse;whiteSpace=wrap;html=1;aspect=fixed;" parent="1" vertex="1">
            <mxGeometry x="380" y="2760" width="80" height="80" as="geometry" />
          </mxCell>
        </UserObject>
        <mxCell id="KKkGE1eCo8rrcUPM3MvS-240" value="" style="edgeStyle=orthogonalEdgeStyle;rounded=0;orthogonalLoop=1;jettySize=auto;html=1;startArrow=none;startFill=0;endArrow=classic;endFill=1;strokeColor=#000000;" parent="1" source="KKkGE1eCo8rrcUPM3MvS-237" target="KKkGE1eCo8rrcUPM3MvS-239" edge="1">
          <mxGeometry relative="1" as="geometry" />
        </mxCell>
        <UserObject label="&lt;span style=&quot;font-size: 24px&quot;&gt;16&lt;/span&gt;" link="https://docs.reach.sh/workshop-atomic-swap-auction.html" id="KKkGE1eCo8rrcUPM3MvS-237">
          <mxCell style="ellipse;whiteSpace=wrap;html=1;aspect=fixed;" parent="1" vertex="1">
            <mxGeometry x="380" y="2920" width="80" height="80" as="geometry" />
          </mxCell>
        </UserObject>
        <mxCell id="KKkGE1eCo8rrcUPM3MvS-242" value="" style="edgeStyle=orthogonalEdgeStyle;rounded=0;orthogonalLoop=1;jettySize=auto;html=1;startArrow=none;startFill=0;endArrow=classic;endFill=1;strokeColor=#000000;" parent="1" source="KKkGE1eCo8rrcUPM3MvS-239" target="KKkGE1eCo8rrcUPM3MvS-241" edge="1">
          <mxGeometry relative="1" as="geometry" />
        </mxCell>
        <UserObject label="&lt;span style=&quot;font-size: 24px&quot;&gt;17&lt;/span&gt;" id="KKkGE1eCo8rrcUPM3MvS-239">
          <mxCell style="ellipse;whiteSpace=wrap;html=1;aspect=fixed;" parent="1" vertex="1">
            <mxGeometry x="380" y="3080" width="80" height="80" as="geometry" />
          </mxCell>
        </UserObject>
        <mxCell id="KKkGE1eCo8rrcUPM3MvS-244" value="" style="edgeStyle=orthogonalEdgeStyle;rounded=0;orthogonalLoop=1;jettySize=auto;html=1;startArrow=none;startFill=0;endArrow=classic;endFill=1;strokeColor=#000000;" parent="1" source="KKkGE1eCo8rrcUPM3MvS-241" target="KKkGE1eCo8rrcUPM3MvS-243" edge="1">
          <mxGeometry relative="1" as="geometry" />
        </mxCell>
        <UserObject label="&lt;span style=&quot;font-size: 24px&quot;&gt;18&lt;/span&gt;" id="KKkGE1eCo8rrcUPM3MvS-241">
          <mxCell style="ellipse;whiteSpace=wrap;html=1;aspect=fixed;" parent="1" vertex="1">
            <mxGeometry x="380" y="3240" width="80" height="80" as="geometry" />
          </mxCell>
        </UserObject>
        <mxCell id="KKkGE1eCo8rrcUPM3MvS-246" value="" style="edgeStyle=orthogonalEdgeStyle;rounded=0;orthogonalLoop=1;jettySize=auto;html=1;startArrow=none;startFill=0;endArrow=classic;endFill=1;strokeColor=#000000;" parent="1" source="KKkGE1eCo8rrcUPM3MvS-243" target="KKkGE1eCo8rrcUPM3MvS-245" edge="1">
          <mxGeometry relative="1" as="geometry" />
        </mxCell>
        <UserObject label="&lt;span style=&quot;font-size: 24px&quot;&gt;19&lt;/span&gt;" id="KKkGE1eCo8rrcUPM3MvS-243">
          <mxCell style="ellipse;whiteSpace=wrap;html=1;aspect=fixed;" parent="1" vertex="1">
            <mxGeometry x="380" y="3400" width="80" height="80" as="geometry" />
          </mxCell>
        </UserObject>
        <mxCell id="KKkGE1eCo8rrcUPM3MvS-248" value="" style="edgeStyle=orthogonalEdgeStyle;rounded=0;orthogonalLoop=1;jettySize=auto;html=1;startArrow=none;startFill=0;endArrow=classic;endFill=1;strokeColor=#000000;" parent="1" source="KKkGE1eCo8rrcUPM3MvS-245" target="KKkGE1eCo8rrcUPM3MvS-247" edge="1">
          <mxGeometry relative="1" as="geometry" />
        </mxCell>
        <UserObject label="&lt;span style=&quot;font-size: 24px&quot;&gt;20&lt;/span&gt;" id="KKkGE1eCo8rrcUPM3MvS-245">
          <mxCell style="ellipse;whiteSpace=wrap;html=1;aspect=fixed;" parent="1" vertex="1">
            <mxGeometry x="380" y="3560" width="80" height="80" as="geometry" />
          </mxCell>
        </UserObject>
        <mxCell id="KKkGE1eCo8rrcUPM3MvS-250" value="" style="edgeStyle=orthogonalEdgeStyle;rounded=0;orthogonalLoop=1;jettySize=auto;html=1;startArrow=none;startFill=0;endArrow=classic;endFill=1;strokeColor=#000000;" parent="1" source="KKkGE1eCo8rrcUPM3MvS-247" target="KKkGE1eCo8rrcUPM3MvS-249" edge="1">
          <mxGeometry relative="1" as="geometry" />
        </mxCell>
        <UserObject label="&lt;span style=&quot;font-size: 24px&quot;&gt;21&lt;/span&gt;" link="https://docs.reach.sh/workshop-nft-auction.html" id="KKkGE1eCo8rrcUPM3MvS-247">
          <mxCell style="ellipse;whiteSpace=wrap;html=1;aspect=fixed;" parent="1" vertex="1">
            <mxGeometry x="380" y="3720" width="80" height="80" as="geometry" />
          </mxCell>
        </UserObject>
        <mxCell id="KKkGE1eCo8rrcUPM3MvS-252" value="" style="edgeStyle=orthogonalEdgeStyle;rounded=0;orthogonalLoop=1;jettySize=auto;html=1;startArrow=none;startFill=0;endArrow=classic;endFill=1;strokeColor=#000000;" parent="1" source="KKkGE1eCo8rrcUPM3MvS-249" target="KKkGE1eCo8rrcUPM3MvS-251" edge="1">
          <mxGeometry relative="1" as="geometry" />
        </mxCell>
        <UserObject label="&lt;span style=&quot;font-size: 24px&quot;&gt;22&lt;/span&gt;" id="KKkGE1eCo8rrcUPM3MvS-249">
          <mxCell style="ellipse;whiteSpace=wrap;html=1;aspect=fixed;" parent="1" vertex="1">
            <mxGeometry x="380" y="3880" width="80" height="80" as="geometry" />
          </mxCell>
        </UserObject>
        <mxCell id="KKkGE1eCo8rrcUPM3MvS-254" value="" style="edgeStyle=orthogonalEdgeStyle;rounded=0;orthogonalLoop=1;jettySize=auto;html=1;startArrow=none;startFill=0;endArrow=classic;endFill=1;strokeColor=#000000;" parent="1" source="KKkGE1eCo8rrcUPM3MvS-251" target="KKkGE1eCo8rrcUPM3MvS-253" edge="1">
          <mxGeometry relative="1" as="geometry" />
        </mxCell>
        <UserObject label="&lt;span style=&quot;font-size: 24px&quot;&gt;23&lt;/span&gt;" id="KKkGE1eCo8rrcUPM3MvS-251">
          <mxCell style="ellipse;whiteSpace=wrap;html=1;aspect=fixed;" parent="1" vertex="1">
            <mxGeometry x="380" y="4040" width="80" height="80" as="geometry" />
          </mxCell>
        </UserObject>
        <mxCell id="KKkGE1eCo8rrcUPM3MvS-256" value="" style="edgeStyle=orthogonalEdgeStyle;rounded=0;orthogonalLoop=1;jettySize=auto;html=1;startArrow=none;startFill=0;endArrow=classic;endFill=1;strokeColor=#000000;" parent="1" source="KKkGE1eCo8rrcUPM3MvS-253" target="KKkGE1eCo8rrcUPM3MvS-255" edge="1">
          <mxGeometry relative="1" as="geometry" />
        </mxCell>
        <UserObject label="&lt;span style=&quot;font-size: 24px&quot;&gt;24&lt;/span&gt;" id="KKkGE1eCo8rrcUPM3MvS-253">
          <mxCell style="ellipse;whiteSpace=wrap;html=1;aspect=fixed;" parent="1" vertex="1">
            <mxGeometry x="380" y="4200" width="80" height="80" as="geometry" />
          </mxCell>
        </UserObject>
        <mxCell id="KKkGE1eCo8rrcUPM3MvS-258" value="" style="edgeStyle=orthogonalEdgeStyle;rounded=0;orthogonalLoop=1;jettySize=auto;html=1;startArrow=none;startFill=0;endArrow=classic;endFill=1;strokeColor=#000000;" parent="1" source="KKkGE1eCo8rrcUPM3MvS-255" target="KKkGE1eCo8rrcUPM3MvS-257" edge="1">
          <mxGeometry relative="1" as="geometry" />
        </mxCell>
        <UserObject label="&lt;span style=&quot;font-size: 24px&quot;&gt;25&lt;/span&gt;" id="KKkGE1eCo8rrcUPM3MvS-255">
          <mxCell style="ellipse;whiteSpace=wrap;html=1;aspect=fixed;" parent="1" vertex="1">
            <mxGeometry x="380" y="4360" width="80" height="80" as="geometry" />
          </mxCell>
        </UserObject>
        <mxCell id="KKkGE1eCo8rrcUPM3MvS-260" value="" style="edgeStyle=orthogonalEdgeStyle;rounded=0;orthogonalLoop=1;jettySize=auto;html=1;startArrow=none;startFill=0;endArrow=classic;endFill=1;strokeColor=#000000;" parent="1" source="KKkGE1eCo8rrcUPM3MvS-257" target="KKkGE1eCo8rrcUPM3MvS-259" edge="1">
          <mxGeometry relative="1" as="geometry" />
        </mxCell>
        <UserObject label="&lt;span style=&quot;font-size: 24px&quot;&gt;26&lt;/span&gt;" id="KKkGE1eCo8rrcUPM3MvS-257">
          <mxCell style="ellipse;whiteSpace=wrap;html=1;aspect=fixed;" parent="1" vertex="1">
            <mxGeometry x="380" y="4520" width="80" height="80" as="geometry" />
          </mxCell>
        </UserObject>
        <mxCell id="KKkGE1eCo8rrcUPM3MvS-262" value="" style="edgeStyle=orthogonalEdgeStyle;rounded=0;orthogonalLoop=1;jettySize=auto;html=1;startArrow=none;startFill=0;endArrow=classic;endFill=1;strokeColor=#000000;" parent="1" source="KKkGE1eCo8rrcUPM3MvS-259" target="KKkGE1eCo8rrcUPM3MvS-261" edge="1">
          <mxGeometry relative="1" as="geometry" />
        </mxCell>
        <UserObject label="&lt;span style=&quot;font-size: 24px&quot;&gt;27&lt;/span&gt;" link="https://docs.reach.sh/workshop-auction-te.html" id="KKkGE1eCo8rrcUPM3MvS-259">
          <mxCell style="ellipse;whiteSpace=wrap;html=1;aspect=fixed;" parent="1" vertex="1">
            <mxGeometry x="380" y="4680" width="80" height="80" as="geometry" />
          </mxCell>
        </UserObject>
        <UserObject label="&lt;span style=&quot;font-size: 24px&quot;&gt;28&lt;/span&gt;" id="KKkGE1eCo8rrcUPM3MvS-261">
          <mxCell style="ellipse;whiteSpace=wrap;html=1;aspect=fixed;" parent="1" vertex="1">
            <mxGeometry x="380" y="4840" width="80" height="80" as="geometry" />
          </mxCell>
        </UserObject>
        <mxCell id="KKkGE1eCo8rrcUPM3MvS-263" value="&lt;span style=&quot;font-size: 24px&quot;&gt;Higher stakes&lt;/span&gt;" style="text;html=1;strokeColor=none;fillColor=none;align=center;verticalAlign=middle;whiteSpace=wrap;rounded=0;" parent="1" vertex="1">
          <mxGeometry x="650" y="1330" width="200" height="20" as="geometry" />
        </mxCell>
        <mxCell id="KKkGE1eCo8rrcUPM3MvS-264" value="&lt;span style=&quot;font-size: 24px&quot;&gt;Dividend payout&lt;/span&gt;" style="text;html=1;strokeColor=none;fillColor=none;align=center;verticalAlign=middle;whiteSpace=wrap;rounded=0;" parent="1" vertex="1">
          <mxGeometry x="650" y="1490" width="200" height="20" as="geometry" />
        </mxCell>
        <UserObject label="&lt;span style=&quot;font-size: 24px&quot;&gt;&lt;font color=&quot;#ff0080&quot;&gt;(dns)&lt;/font&gt;&lt;/span&gt;" link="https://docs.reach.sh/workshop-fomo-generalized.html#(part._workshop-fomo-generalized-dns)" id="KKkGE1eCo8rrcUPM3MvS-265">
          <mxCell style="text;html=1;strokeColor=none;fillColor=none;align=center;verticalAlign=middle;whiteSpace=wrap;rounded=0;" parent="1" vertex="1">
            <mxGeometry x="650" y="1080" width="200" height="20" as="geometry" />
          </mxCell>
        </UserObject>
        <UserObject label="&lt;span style=&quot;font-size: 24px&quot;&gt;&lt;font color=&quot;#ff0080&quot;&gt;(dns)&lt;/font&gt;&lt;/span&gt;" link="https://docs.reach.sh/workshop-trust-fund.html#(part._workshop-trust-fund-dns)" id="KKkGE1eCo8rrcUPM3MvS-266">
          <mxCell style="text;html=1;strokeColor=none;fillColor=none;align=center;verticalAlign=middle;whiteSpace=wrap;rounded=0;" parent="1" vertex="1">
            <mxGeometry x="650" y="710" width="200" height="20" as="geometry" />
          </mxCell>
        </UserObject>
        <UserObject label="&lt;span style=&quot;font-size: 24px&quot;&gt;&lt;font color=&quot;#ff0080&quot;&gt;(dns)&lt;/font&gt;&lt;/span&gt;" link="https://docs.reach.sh/workshop-relay.html#(part._workshop-relay-dns)" id="KKkGE1eCo8rrcUPM3MvS-268">
          <mxCell style="text;html=1;strokeColor=none;fillColor=none;align=center;verticalAlign=middle;whiteSpace=wrap;rounded=0;" parent="1" vertex="1">
            <mxGeometry x="650" y="550" width="200" height="20" as="geometry" />
          </mxCell>
        </UserObject>
        <mxCell id="MvdbTgC7_QNQWsTqHOr7-1" value="" style="shape=image;html=1;verticalAlign=top;verticalLabelPosition=bottom;labelBackgroundColor=#ffffff;imageAspect=0;aspect=fixed;image=https://cdn4.iconfinder.com/data/icons/lgbt-illustrations/112/177-_flag-hand-peace-bisexual-1-128.png" parent="1" vertex="1">
          <mxGeometry x="836" y="-28" width="128" height="128" as="geometry" />
        </mxCell>
        <mxCell id="MvdbTgC7_QNQWsTqHOr7-24" value="" style="edgeStyle=orthogonalEdgeStyle;rounded=0;orthogonalLoop=1;jettySize=auto;html=1;startArrow=none;startFill=0;endArrow=classic;endFill=1;strokeColor=#000000;" parent="1" source="MvdbTgC7_QNQWsTqHOr7-25" target="MvdbTgC7_QNQWsTqHOr7-27" edge="1">
          <mxGeometry relative="1" as="geometry" />
        </mxCell>
        <UserObject label="&lt;font style=&quot;font-size: 24px&quot; color=&quot;#ff3399&quot;&gt;0&lt;/font&gt;" link="https://docs.reach.sh/workshop-fomo.html" id="MvdbTgC7_QNQWsTqHOr7-25">
          <mxCell style="ellipse;whiteSpace=wrap;html=1;aspect=fixed;strokeColor=#FF3399;" parent="1" vertex="1">
            <mxGeometry x="1740" y="480" width="80" height="80" as="geometry" />
          </mxCell>
        </UserObject>
        <mxCell id="MvdbTgC7_QNQWsTqHOr7-26" value="" style="edgeStyle=orthogonalEdgeStyle;rounded=0;orthogonalLoop=1;jettySize=auto;html=1;startArrow=none;startFill=0;endArrow=classic;endFill=1;strokeColor=#000000;entryX=0.5;entryY=0;entryDx=0;entryDy=0;" parent="1" source="MvdbTgC7_QNQWsTqHOr7-27" target="MvdbTgC7_QNQWsTqHOr7-30" edge="1">
          <mxGeometry relative="1" as="geometry">
            <mxPoint x="1780" y="800" as="targetPoint" />
          </mxGeometry>
        </mxCell>
        <UserObject label="&lt;span style=&quot;font-size: 24px&quot;&gt;&lt;font color=&quot;#ff3399&quot;&gt;1&lt;/font&gt;&lt;/span&gt;" link="https://docs.reach.sh/workshop-fomo-generalized.html" id="MvdbTgC7_QNQWsTqHOr7-27">
          <mxCell style="ellipse;whiteSpace=wrap;html=1;aspect=fixed;strokeColor=#FF3399;" parent="1" vertex="1">
            <mxGeometry x="1740" y="640" width="80" height="80" as="geometry" />
          </mxCell>
        </UserObject>
        <mxCell id="MvdbTgC7_QNQWsTqHOr7-29" value="" style="edgeStyle=orthogonalEdgeStyle;rounded=0;orthogonalLoop=1;jettySize=auto;html=1;startArrow=none;startFill=0;endArrow=classic;endFill=1;strokeColor=#000000;" parent="1" source="MvdbTgC7_QNQWsTqHOr7-30" target="MvdbTgC7_QNQWsTqHOr7-32" edge="1">
          <mxGeometry relative="1" as="geometry" />
        </mxCell>
        <UserObject label="&lt;font style=&quot;font-size: 24px&quot;&gt;&lt;font color=&quot;#ff3399&quot;&gt;2&lt;/font&gt;&lt;br&gt;&lt;/font&gt;" link="https://docs.reach.sh/workshop-fomo-generalized.html" id="MvdbTgC7_QNQWsTqHOr7-30">
          <mxCell style="ellipse;whiteSpace=wrap;html=1;aspect=fixed;strokeColor=#FF3399;" parent="1" vertex="1">
            <mxGeometry x="1740" y="960" width="80" height="80" as="geometry" />
          </mxCell>
        </UserObject>
        <UserObject label="&lt;font style=&quot;font-size: 24px&quot;&gt;&lt;font color=&quot;#ff3399&quot;&gt;3&lt;/font&gt;&lt;br&gt;&lt;/font&gt;" link="https://docs.reach.sh/workshop-fomo-generalized.html" id="MvdbTgC7_QNQWsTqHOr7-32">
          <mxCell style="ellipse;whiteSpace=wrap;html=1;aspect=fixed;strokeColor=#FF3399;" parent="1" vertex="1">
            <mxGeometry x="1740" y="1120" width="80" height="80" as="geometry" />
          </mxCell>
        </UserObject>
        <mxCell id="MvdbTgC7_QNQWsTqHOr7-33" value="&lt;span style=&quot;font-size: 24px&quot;&gt;&lt;b&gt;&lt;font color=&quot;#ff3399&quot;&gt;BOUNTY&lt;br&gt;HACK&lt;/font&gt;&lt;br&gt;&lt;/b&gt;&lt;/span&gt;" style="text;html=1;strokeColor=none;fillColor=none;align=center;verticalAlign=middle;whiteSpace=wrap;rounded=0;" parent="1" vertex="1">
          <mxGeometry x="1680" y="410" width="200" height="20" as="geometry" />
        </mxCell>
        <mxCell id="MvdbTgC7_QNQWsTqHOr7-34" value="&lt;span style=&quot;font-size: 24px&quot;&gt;&lt;font color=&quot;#ff3399&quot;&gt;Genisis&lt;/font&gt;&lt;br&gt;&lt;/span&gt;" style="text;html=1;strokeColor=none;fillColor=none;align=center;verticalAlign=middle;whiteSpace=wrap;rounded=0;" parent="1" vertex="1">
          <mxGeometry x="1810" y="510" width="200" height="20" as="geometry" />
        </mxCell>
        <mxCell id="MvdbTgC7_QNQWsTqHOr7-35" value="&lt;span style=&quot;font-size: 24px&quot;&gt;&lt;font color=&quot;#ff3399&quot;&gt;Turkiye&lt;/font&gt;&lt;br&gt;&lt;/span&gt;" style="text;html=1;strokeColor=none;fillColor=none;align=center;verticalAlign=middle;whiteSpace=wrap;rounded=0;" parent="1" vertex="1">
          <mxGeometry x="1810" y="670" width="200" height="20" as="geometry" />
        </mxCell>
        <mxCell id="MvdbTgC7_QNQWsTqHOr7-36" value="&lt;span style=&quot;font-size: 24px&quot;&gt;&lt;font color=&quot;#ff3399&quot;&gt;Unchained&lt;/font&gt;&lt;br&gt;&lt;/span&gt;" style="text;html=1;strokeColor=none;fillColor=none;align=center;verticalAlign=middle;whiteSpace=wrap;rounded=0;" parent="1" vertex="1">
          <mxGeometry x="1810" y="990" width="200" height="20" as="geometry" />
        </mxCell>
        <UserObject label="&lt;font style=&quot;font-size: 24px&quot;&gt;&lt;font color=&quot;#ff3399&quot;&gt;i&lt;/font&gt;&lt;br&gt;&lt;/font&gt;" link="https://docs.reach.sh/workshop-fomo-generalized.html" id="3WRZl9oYsmr72j8aiQq1-1">
          <mxCell style="ellipse;whiteSpace=wrap;html=1;aspect=fixed;strokeColor=#FF3399;" parent="1" vertex="1">
            <mxGeometry x="2740" y="1008.28" width="80" height="80" as="geometry" />
          </mxCell>
        </UserObject>
        <UserObject label="&lt;div&gt;&lt;span style=&quot;color: rgb(255 , 51 , 153) ; font-size: 24px&quot;&gt;Mines of &lt;/span&gt;&lt;b style=&quot;color: rgb(255 , 51 , 153) ; font-size: 24px&quot;&gt;Morra&lt;/b&gt;&lt;/div&gt;" link="https://en.wikipedia.org/wiki/Morra_(game)" id="3WRZl9oYsmr72j8aiQq1-2">
          <mxCell style="text;html=1;strokeColor=none;fillColor=none;align=right;verticalAlign=middle;whiteSpace=wrap;rounded=0;" parent="1" vertex="1">
            <mxGeometry x="2680" y="968.28" width="200" height="20" as="geometry" />
          </mxCell>
        </UserObject>
        <mxCell id="3WRZl9oYsmr72j8aiQq1-3" value="" style="endArrow=none;dashed=1;html=1;dashPattern=1 3;strokeWidth=2;" parent="1" edge="1">
          <mxGeometry width="50" height="50" relative="1" as="geometry">
            <mxPoint x="2380" y="980" as="sourcePoint" />
            <mxPoint x="1990" y="980" as="targetPoint" />
          </mxGeometry>
        </mxCell>
        <mxCell id="3WRZl9oYsmr72j8aiQq1-5" value="Featured in one of the bounty hacks" style="text;html=1;strokeColor=none;fillColor=none;align=center;verticalAlign=middle;whiteSpace=wrap;rounded=0;" parent="1" vertex="1">
          <mxGeometry x="1980" y="830" width="160" height="30" as="geometry" />
        </mxCell>
        <mxCell id="3WRZl9oYsmr72j8aiQq1-6" value="Like RPS but generalized to many players" style="text;html=1;strokeColor=none;fillColor=none;align=center;verticalAlign=middle;whiteSpace=wrap;rounded=0;" parent="1" vertex="1">
          <mxGeometry x="1286.5" y="1139" width="160" height="30" as="geometry" />
        </mxCell>
        <UserObject label="&lt;font style=&quot;font-size: 24px&quot;&gt;ALGO&lt;/font&gt;" link="https://www.algorand.com/" id="x9JddxEFcb-pDjUzWDCR-3">
          <mxCell style="ellipse;whiteSpace=wrap;html=1;aspect=fixed;" parent="1" vertex="1">
            <mxGeometry x="2290" y="360" width="80" height="80" as="geometry" />
          </mxCell>
        </UserObject>
        <UserObject label="&lt;font style=&quot;font-size: 24px&quot;&gt;CFX&lt;/font&gt;" link="https://confluxnetwork.org/" id="x9JddxEFcb-pDjUzWDCR-5">
          <mxCell style="ellipse;whiteSpace=wrap;html=1;aspect=fixed;" parent="1" vertex="1">
            <mxGeometry x="2290" y="520" width="80" height="80" as="geometry" />
          </mxCell>
        </UserObject>
        <UserObject label="&lt;span style=&quot;font-size: 24px&quot;&gt;ETH&lt;/span&gt;" link="https://docs.reach.sh/tut.html" id="x9JddxEFcb-pDjUzWDCR-9">
          <mxCell style="ellipse;whiteSpace=wrap;html=1;aspect=fixed;" parent="1" vertex="1">
            <mxGeometry x="2290" y="200" width="80" height="80" as="geometry" />
          </mxCell>
        </UserObject>
        <mxCell id="x9JddxEFcb-pDjUzWDCR-10" value="&lt;font style=&quot;font-size: 24px&quot;&gt;&lt;b&gt;Networks&lt;/b&gt;&lt;/font&gt;" style="text;html=1;strokeColor=none;fillColor=none;align=center;verticalAlign=middle;whiteSpace=wrap;rounded=0;" parent="1" vertex="1">
          <mxGeometry x="2250" y="160" width="160" height="20" as="geometry" />
        </mxCell>
        <UserObject label="&lt;span style=&quot;font-size: 24px&quot;&gt;ENS&lt;/span&gt;" link="https://ens.domains/" id="x9JddxEFcb-pDjUzWDCR-11">
          <mxCell style="ellipse;whiteSpace=wrap;html=1;aspect=fixed;" parent="1" vertex="1">
            <mxGeometry x="2450" y="200" width="80" height="80" as="geometry" />
          </mxCell>
        </UserObject>
        <UserObject label="&lt;span style=&quot;font-size: 24px&quot;&gt;ANS?&lt;/span&gt;" link="https://ens.domains/" id="x9JddxEFcb-pDjUzWDCR-13">
          <mxCell style="ellipse;whiteSpace=wrap;html=1;aspect=fixed;opacity=50;" parent="1" vertex="1">
            <mxGeometry x="2450" y="360" width="80" height="80" as="geometry" />
          </mxCell>
        </UserObject>
        <mxCell id="x9JddxEFcb-pDjUzWDCR-15" value="Talks of creating something similar for Algo" style="text;html=1;strokeColor=none;fillColor=none;align=center;verticalAlign=middle;whiteSpace=wrap;rounded=0;" parent="1" vertex="1">
          <mxGeometry x="2540" y="388.8" width="150" height="22.4" as="geometry" />
        </mxCell>
        <mxCell id="x9JddxEFcb-pDjUzWDCR-16" value="" style="endArrow=none;dashed=1;html=1;dashPattern=1 3;strokeWidth=2;" parent="1" edge="1">
          <mxGeometry width="50" height="50" relative="1" as="geometry">
            <mxPoint x="2550" y="370" as="sourcePoint" />
            <mxPoint x="2500" y="290" as="targetPoint" />
          </mxGeometry>
        </mxCell>
        <UserObject label="" link="https://ethereum.org/" id="x9JddxEFcb-pDjUzWDCR-17">
          <mxCell style="shape=image;html=1;verticalAlign=top;verticalLabelPosition=bottom;labelBackgroundColor=#ffffff;imageAspect=0;aspect=fixed;image=https://cdn4.iconfinder.com/data/icons/crypto-currency-and-coin-2/256/etherium_eth_ethcoin_crypto-128.png" parent="1" vertex="1">
            <mxGeometry x="2290" y="200" width="80" height="80" as="geometry" />
          </mxCell>
        </UserObject>
        <mxCell id="x9JddxEFcb-pDjUzWDCR-18" value="ETH" style="text;html=1;strokeColor=none;fillColor=none;align=center;verticalAlign=middle;whiteSpace=wrap;rounded=0;" parent="1" vertex="1">
          <mxGeometry x="2370" y="228.8" width="60" height="22.4" as="geometry" />
        </mxCell>
        <UserObject label="" link="https://www.youtube.com/watch?v=aYOjD9XMTrc" id="7Iuuel0yorLGW1I5vMiL-1">
          <mxCell style="shape=image;html=1;verticalAlign=top;verticalLabelPosition=bottom;labelBackgroundColor=#ffffff;imageAspect=0;aspect=fixed;image=https://cdn3.iconfinder.com/data/icons/2018-social-media-logotypes/1000/2018_social_media_popular_app_logo_youtube-128.png" parent="1" vertex="1">
            <mxGeometry x="2930" y="1008.28" width="80" height="80" as="geometry" />
          </mxCell>
        </UserObject>
        <UserObject label="" link="https://github.com/KBryan/Morra_Reach" id="7Iuuel0yorLGW1I5vMiL-3">
          <mxCell style="shape=image;html=1;verticalAlign=top;verticalLabelPosition=bottom;labelBackgroundColor=#ffffff;imageAspect=0;aspect=fixed;image=https://cdn4.iconfinder.com/data/icons/social-media-logos-6/512/71-github-128.png" parent="1" vertex="1">
            <mxGeometry x="3020" y="1008.28" width="80" height="80" as="geometry" />
          </mxCell>
        </UserObject>
        <UserObject label="" link="https://github.com/Jesulonimi21/morra-react" id="7Iuuel0yorLGW1I5vMiL-4">
          <mxCell style="shape=image;html=1;verticalAlign=top;verticalLabelPosition=bottom;labelBackgroundColor=#ffffff;imageAspect=0;aspect=fixed;image=https://cdn4.iconfinder.com/data/icons/social-media-logos-6/512/71-github-128.png" parent="1" vertex="1">
            <mxGeometry x="3110" y="1008.28" width="80" height="80" as="geometry" />
          </mxCell>
        </UserObject>
        <mxCell id="P4zGQBsl5h3b4HmR-ngJ-1" value="" style="endArrow=none;dashed=1;html=1;dashPattern=1 3;strokeWidth=2;" parent="1" target="P4zGQBsl5h3b4HmR-ngJ-2" edge="1">
          <mxGeometry width="50" height="50" relative="1" as="geometry">
            <mxPoint x="3170" y="1008.28" as="sourcePoint" />
            <mxPoint x="3220" y="958.28" as="targetPoint" />
          </mxGeometry>
        </mxCell>
        <mxCell id="P4zGQBsl5h3b4HmR-ngJ-2" value="morra-react" style="text;html=1;strokeColor=none;fillColor=none;align=center;verticalAlign=middle;whiteSpace=wrap;rounded=0;" parent="1" vertex="1">
          <mxGeometry x="3200" y="948.28" width="70" height="20" as="geometry" />
        </mxCell>
        <mxCell id="P4zGQBsl5h3b4HmR-ngJ-3" value="" style="endArrow=none;dashed=1;html=1;dashPattern=1 3;strokeWidth=2;" parent="1" edge="1">
          <mxGeometry width="50" height="50" relative="1" as="geometry">
            <mxPoint x="3063.9999999999995" y="1008.28" as="sourcePoint" />
            <mxPoint x="3116" y="968.28" as="targetPoint" />
          </mxGeometry>
        </mxCell>
        <mxCell id="P4zGQBsl5h3b4HmR-ngJ-4" value="morra-reach" style="text;html=1;strokeColor=none;fillColor=none;align=center;verticalAlign=middle;whiteSpace=wrap;rounded=0;" parent="1" vertex="1">
          <mxGeometry x="3080" y="948.28" width="70" height="20" as="geometry" />
        </mxCell>
        <mxCell id="P4zGQBsl5h3b4HmR-ngJ-5" value="" style="shape=image;html=1;verticalAlign=top;verticalLabelPosition=bottom;labelBackgroundColor=#ffffff;imageAspect=0;aspect=fixed;image=https://cdn3.iconfinder.com/data/icons/nature-37/120/aeaqas-128.png" parent="1" vertex="1">
          <mxGeometry x="2730" y="998.28" width="100" height="100" as="geometry" />
        </mxCell>
        <UserObject label="" link="https://en.wikipedia.org/wiki/Morra_(game)" id="P4zGQBsl5h3b4HmR-ngJ-7">
          <mxCell style="shape=image;html=1;verticalAlign=top;verticalLabelPosition=bottom;labelBackgroundColor=#ffffff;imageAspect=0;aspect=fixed;image=https://cdn0.iconfinder.com/data/icons/socialize-part-3-icons-set/128/wikipedia.png" parent="1" vertex="1">
            <mxGeometry x="2830" y="1000.28" width="98" height="98" as="geometry" />
          </mxCell>
        </UserObject>
        <mxCell id="P4zGQBsl5h3b4HmR-ngJ-8" value="Morra (game)" style="text;html=1;strokeColor=none;fillColor=none;align=center;verticalAlign=middle;whiteSpace=wrap;rounded=0;" parent="1" vertex="1">
          <mxGeometry x="2840" y="948.28" width="80" height="20" as="geometry" />
        </mxCell>
        <mxCell id="P4zGQBsl5h3b4HmR-ngJ-9" value="Morra on Algorand" style="text;html=1;strokeColor=none;fillColor=none;align=center;verticalAlign=middle;whiteSpace=wrap;rounded=0;" parent="1" vertex="1">
          <mxGeometry x="2930" y="948.28" width="110" height="20" as="geometry" />
        </mxCell>
        <mxCell id="P4zGQBsl5h3b4HmR-ngJ-10" value="" style="endArrow=none;dashed=1;html=1;dashPattern=1 3;strokeWidth=2;" parent="1" edge="1">
          <mxGeometry width="50" height="50" relative="1" as="geometry">
            <mxPoint x="2959.9999999999995" y="1008.28" as="sourcePoint" />
            <mxPoint x="3012" y="968.28" as="targetPoint" />
          </mxGeometry>
        </mxCell>
        <mxCell id="P4zGQBsl5h3b4HmR-ngJ-11" value="" style="endArrow=none;dashed=1;html=1;dashPattern=1 3;strokeWidth=2;" parent="1" edge="1">
          <mxGeometry width="50" height="50" relative="1" as="geometry">
            <mxPoint x="2859.9999999999995" y="1008.28" as="sourcePoint" />
            <mxPoint x="2912" y="968.28" as="targetPoint" />
          </mxGeometry>
        </mxCell>
        <UserObject label="&lt;span style=&quot;font-size: 24px&quot;&gt;8&lt;/span&gt;" link="https://docs.reach.sh/workshop-rental.html" id="sg89KOtYxPOiV6Zl6-wZ-1">
          <mxCell style="ellipse;whiteSpace=wrap;html=1;aspect=fixed;" parent="1" vertex="1">
            <mxGeometry x="860" y="1640" width="80" height="80" as="geometry" />
          </mxCell>
        </UserObject>
        <mxCell id="sg89KOtYxPOiV6Zl6-wZ-2" value="" style="endArrow=none;dashed=1;html=1;dashPattern=1 3;strokeWidth=2;" parent="1" target="sg89KOtYxPOiV6Zl6-wZ-3" edge="1">
          <mxGeometry width="50" height="50" relative="1" as="geometry">
            <mxPoint x="940" y="1660" as="sourcePoint" />
            <mxPoint x="990" y="1610" as="targetPoint" />
          </mxGeometry>
        </mxCell>
        <mxCell id="sg89KOtYxPOiV6Zl6-wZ-3" value="similar to &lt;span class=&quot;emph&quot;&gt;Rock, Paper, Scissors!&lt;/span&gt;, except with different &quot;hands&quot; and a different pay-out structure" style="text;html=1;strokeColor=none;fillColor=none;align=center;verticalAlign=middle;whiteSpace=wrap;rounded=0;" parent="1" vertex="1">
          <mxGeometry x="970" y="1590" width="300" height="30" as="geometry" />
        </mxCell>
        <mxCell id="1rOO1dU9e9UlJ_yFkYG3-3" value="&lt;span style=&quot;font-size: 24px&quot;&gt;Simultaneous Games&lt;/span&gt;" style="text;html=1;strokeColor=none;fillColor=none;align=center;verticalAlign=middle;whiteSpace=wrap;rounded=0;" parent="1" vertex="1">
          <mxGeometry x="510" y="1830" width="250" height="20" as="geometry" />
        </mxCell>
        <mxCell id="1rOO1dU9e9UlJ_yFkYG3-5" value="&lt;span style=&quot;font-size: 24px&quot;&gt;Guardian Account&lt;/span&gt;" style="text;html=1;strokeColor=none;fillColor=none;align=center;verticalAlign=middle;whiteSpace=wrap;rounded=0;" parent="1" vertex="1">
          <mxGeometry x="510" y="1990" width="250" height="20" as="geometry" />
        </mxCell>
        <mxCell id="1rOO1dU9e9UlJ_yFkYG3-7" value="&lt;span style=&quot;font-size: 24px&quot;&gt;Periodic Payment&lt;/span&gt;" style="text;html=1;strokeColor=none;fillColor=none;align=center;verticalAlign=middle;whiteSpace=wrap;rounded=0;" parent="1" vertex="1">
          <mxGeometry x="510" y="2150" width="250" height="20" as="geometry" />
        </mxCell>
        <UserObject label="" link="https://github.com/temptemp3/reach-rock-paper-scissors" id="BayRtDTZu3VlFncPiJkP-1">
          <mxCell style="shape=image;html=1;verticalAlign=top;verticalLabelPosition=bottom;labelBackgroundColor=#ffffff;imageAspect=0;aspect=fixed;image=https://cdn4.iconfinder.com/data/icons/social-media-logos-6/512/71-github-128.png" parent="1" vertex="1">
            <mxGeometry x="1150" y="1320" width="80" height="80" as="geometry" />
          </mxCell>
        </UserObject>
        <mxCell id="BayRtDTZu3VlFncPiJkP-2" value="&lt;span style=&quot;font-size: 24px&quot;&gt;&lt;font color=&quot;#ff3399&quot;&gt;Conflux Chinese&lt;/font&gt;&lt;br&gt;&lt;/span&gt;" style="text;html=1;strokeColor=none;fillColor=none;align=center;verticalAlign=middle;whiteSpace=wrap;rounded=0;" parent="1" vertex="1">
          <mxGeometry x="1810" y="1150" width="260" height="20" as="geometry" />
        </mxCell>
        <UserObject label="&lt;span style=&quot;font-size: 24px&quot;&gt;Jul 21&#39;&lt;br&gt;&lt;/span&gt;" link="https://www.youtube.com/watch?v=oDtqCgRf_KA" id="BayRtDTZu3VlFncPiJkP-3">
          <mxCell style="text;html=1;strokeColor=none;fillColor=none;align=center;verticalAlign=middle;whiteSpace=wrap;rounded=0;" parent="1" vertex="1">
            <mxGeometry x="1560" y="1150" width="210" height="20" as="geometry" />
          </mxCell>
        </UserObject>
        <UserObject label="" link="https://github.com/temptemp3/reach-workshop-fomo-generalized" id="BayRtDTZu3VlFncPiJkP-4">
          <mxCell style="shape=image;html=1;verticalAlign=top;verticalLabelPosition=bottom;labelBackgroundColor=#ffffff;imageAspect=0;aspect=fixed;image=https://cdn4.iconfinder.com/data/icons/social-media-logos-6/512/71-github-128.png" parent="1" vertex="1">
            <mxGeometry x="690" y="1550" width="80" height="80" as="geometry" />
          </mxCell>
        </UserObject>
        <mxCell id="BayRtDTZu3VlFncPiJkP-6" value="" style="endArrow=none;dashed=1;html=1;dashPattern=1 3;strokeWidth=2;" parent="1" target="BayRtDTZu3VlFncPiJkP-7" edge="1">
          <mxGeometry width="50" height="50" relative="1" as="geometry">
            <mxPoint x="1214" y="1330" as="sourcePoint" />
            <mxPoint x="1264" y="1280" as="targetPoint" />
          </mxGeometry>
        </mxCell>
        <mxCell id="BayRtDTZu3VlFncPiJkP-7" value="temptemp3/RPS" style="text;html=1;strokeColor=none;fillColor=none;align=center;verticalAlign=middle;whiteSpace=wrap;rounded=0;" parent="1" vertex="1">
          <mxGeometry x="1244" y="1270" width="40" height="20" as="geometry" />
        </mxCell>
        <mxCell id="BayRtDTZu3VlFncPiJkP-8" value="" style="endArrow=none;dashed=1;html=1;dashPattern=1 3;strokeWidth=2;" parent="1" target="BayRtDTZu3VlFncPiJkP-9" edge="1">
          <mxGeometry width="50" height="50" relative="1" as="geometry">
            <mxPoint x="760" y="1570" as="sourcePoint" />
            <mxPoint x="810" y="1520" as="targetPoint" />
          </mxGeometry>
        </mxCell>
        <mxCell id="BayRtDTZu3VlFncPiJkP-9" value="temptemp/FOMO" style="text;html=1;strokeColor=none;fillColor=none;align=center;verticalAlign=middle;whiteSpace=wrap;rounded=0;" parent="1" vertex="1">
          <mxGeometry x="790" y="1510" width="40" height="20" as="geometry" />
        </mxCell>
        <UserObject label="" link="https://github.com/reach-sh/reach-lang/tree/master/examples/rental" id="BayRtDTZu3VlFncPiJkP-10">
          <mxCell style="shape=image;html=1;verticalAlign=top;verticalLabelPosition=bottom;labelBackgroundColor=#ffffff;imageAspect=0;aspect=fixed;image=https://cdn4.iconfinder.com/data/icons/social-media-logos-6/512/71-github-128.png" parent="1" vertex="1">
            <mxGeometry x="1240.5" y="1620" width="80" height="80" as="geometry" />
          </mxCell>
        </UserObject>
        <mxCell id="BayRtDTZu3VlFncPiJkP-11" value="" style="endArrow=none;dashed=1;html=1;dashPattern=1 3;strokeWidth=2;" parent="1" target="BayRtDTZu3VlFncPiJkP-12" edge="1">
          <mxGeometry width="50" height="50" relative="1" as="geometry">
            <mxPoint x="1300" y="1630" as="sourcePoint" />
            <mxPoint x="1350" y="1580" as="targetPoint" />
          </mxGeometry>
        </mxCell>
        <mxCell id="BayRtDTZu3VlFncPiJkP-12" value="examples" style="text;html=1;strokeColor=none;fillColor=none;align=center;verticalAlign=middle;whiteSpace=wrap;rounded=0;" parent="1" vertex="1">
          <mxGeometry x="1330" y="1570" width="50" height="20" as="geometry" />
        </mxCell>
        <UserObject label="" link="https://www.youtube.com/watch?v=NzX3LIOWhYs" id="9V3d-71UxQv5VBPhQEs--1">
          <mxCell style="shape=image;html=1;verticalAlign=top;verticalLabelPosition=bottom;labelBackgroundColor=#ffffff;imageAspect=0;aspect=fixed;image=https://cdn3.iconfinder.com/data/icons/2018-social-media-logotypes/1000/2018_social_media_popular_app_logo_youtube-128.png" parent="1" vertex="1">
            <mxGeometry x="2930" y="1160" width="80" height="80" as="geometry" />
          </mxCell>
        </UserObject>
        <mxCell id="9V3d-71UxQv5VBPhQEs--3" value="" style="endArrow=none;dashed=1;html=1;dashPattern=1 3;strokeWidth=2;" parent="1" target="9V3d-71UxQv5VBPhQEs--4" edge="1">
          <mxGeometry width="50" height="50" relative="1" as="geometry">
            <mxPoint x="2945" y="1168.28" as="sourcePoint" />
            <mxPoint x="2995" y="1118.28" as="targetPoint" />
          </mxGeometry>
        </mxCell>
        <mxCell id="9V3d-71UxQv5VBPhQEs--4" value="Morra Interview" style="text;html=1;strokeColor=none;fillColor=none;align=center;verticalAlign=middle;whiteSpace=wrap;rounded=0;" parent="1" vertex="1">
          <mxGeometry x="2942.5" y="1108.28" width="85" height="20" as="geometry" />
        </mxCell>
        <UserObject label="&lt;font style=&quot;font-size: 24px&quot;&gt;&lt;b&gt;Exercises&lt;/b&gt;&lt;/font&gt;" link="https://docs.reach.sh/workshop.html" id="9V3d-71UxQv5VBPhQEs--5">
          <mxCell style="text;html=1;strokeColor=none;fillColor=none;align=left;verticalAlign=middle;whiteSpace=wrap;rounded=0;" parent="1" vertex="1">
            <mxGeometry x="-460" y="310" width="160" height="20" as="geometry" />
          </mxCell>
        </UserObject>
        <UserObject label="&lt;font style=&quot;font-size: 24px&quot;&gt;1&lt;/font&gt;" link="https://docs.reach.sh/workshop-hash-lock.html" id="9V3d-71UxQv5VBPhQEs--6">
          <mxCell style="ellipse;whiteSpace=wrap;html=1;aspect=fixed;" parent="1" vertex="1">
            <mxGeometry x="-300" y="360" width="80" height="80" as="geometry" />
          </mxCell>
        </UserObject>
        <mxCell id="9V3d-71UxQv5VBPhQEs--25" value="" style="edgeStyle=orthogonalEdgeStyle;rounded=0;orthogonalLoop=1;jettySize=auto;html=1;" parent="1" source="9V3d-71UxQv5VBPhQEs--7" target="9V3d-71UxQv5VBPhQEs--8" edge="1">
          <mxGeometry relative="1" as="geometry" />
        </mxCell>
        <mxCell id="9V3d-71UxQv5VBPhQEs--7" value="&lt;font style=&quot;font-size: 24px&quot;&gt;Modules&lt;/font&gt;" style="text;html=1;strokeColor=none;fillColor=none;align=center;verticalAlign=middle;whiteSpace=wrap;rounded=0;" parent="1" vertex="1">
          <mxGeometry x="-200" y="390" width="160" height="20" as="geometry" />
        </mxCell>
        <mxCell id="9V3d-71UxQv5VBPhQEs--24" value="" style="edgeStyle=orthogonalEdgeStyle;rounded=0;orthogonalLoop=1;jettySize=auto;html=1;" parent="1" source="9V3d-71UxQv5VBPhQEs--8" target="9V3d-71UxQv5VBPhQEs--10" edge="1">
          <mxGeometry relative="1" as="geometry" />
        </mxCell>
        <UserObject label="&lt;font style=&quot;font-size: 24px&quot;&gt;ref: Modules&lt;/font&gt;" link="https://docs.reach.sh/ref-programs-module.html" id="9V3d-71UxQv5VBPhQEs--8">
          <mxCell style="text;html=1;strokeColor=none;fillColor=none;align=center;verticalAlign=middle;whiteSpace=wrap;rounded=0;" parent="1" vertex="1">
            <mxGeometry x="-200" y="490" width="160" height="20" as="geometry" />
          </mxCell>
        </UserObject>
        <mxCell id="9V3d-71UxQv5VBPhQEs--23" value="" style="edgeStyle=orthogonalEdgeStyle;rounded=0;orthogonalLoop=1;jettySize=auto;html=1;" parent="1" source="9V3d-71UxQv5VBPhQEs--10" target="9V3d-71UxQv5VBPhQEs--13" edge="1">
          <mxGeometry relative="1" as="geometry" />
        </mxCell>
        <UserObject label="&lt;font style=&quot;font-size: 24px&quot;&gt;ref: Compute: statements&lt;/font&gt;" link="https://docs.reach.sh/ref-programs-compute.html#%28part._ref-programs-compute-stmts%29" id="9V3d-71UxQv5VBPhQEs--10">
          <mxCell style="text;html=1;strokeColor=none;fillColor=none;align=left;verticalAlign=middle;whiteSpace=wrap;rounded=0;" parent="1" vertex="1">
            <mxGeometry x="-200" y="590" width="300" height="20" as="geometry" />
          </mxCell>
        </UserObject>
        <mxCell id="9V3d-71UxQv5VBPhQEs--22" value="" style="edgeStyle=orthogonalEdgeStyle;rounded=0;orthogonalLoop=1;jettySize=auto;html=1;" parent="1" source="9V3d-71UxQv5VBPhQEs--13" target="9V3d-71UxQv5VBPhQEs--15" edge="1">
          <mxGeometry relative="1" as="geometry" />
        </mxCell>
        <UserObject label="&lt;font style=&quot;font-size: 24px&quot;&gt;export&lt;/font&gt;" link="https://docs.reach.sh/ref-programs-compute.html#%28part._ref-programs-compute-stmts%29" id="9V3d-71UxQv5VBPhQEs--13">
          <mxCell style="text;html=1;strokeColor=none;fillColor=none;align=left;verticalAlign=middle;whiteSpace=wrap;rounded=0;" parent="1" vertex="1">
            <mxGeometry x="-200" y="690" width="130" height="20" as="geometry" />
          </mxCell>
        </UserObject>
        <mxCell id="9V3d-71UxQv5VBPhQEs--21" value="" style="edgeStyle=orthogonalEdgeStyle;rounded=0;orthogonalLoop=1;jettySize=auto;html=1;" parent="1" source="9V3d-71UxQv5VBPhQEs--15" target="9V3d-71UxQv5VBPhQEs--17" edge="1">
          <mxGeometry relative="1" as="geometry" />
        </mxCell>
        <UserObject label="&lt;font style=&quot;font-size: 24px&quot;&gt;import&lt;/font&gt;" link="https://docs.reach.sh/ref-programs-compute.html#%28part._ref-programs-compute-stmts%29" id="9V3d-71UxQv5VBPhQEs--15">
          <mxCell style="text;html=1;strokeColor=none;fillColor=none;align=left;verticalAlign=middle;whiteSpace=wrap;rounded=0;" parent="1" vertex="1">
            <mxGeometry x="-200" y="790" width="130" height="20" as="geometry" />
          </mxCell>
        </UserObject>
        <mxCell id="9V3d-71UxQv5VBPhQEs--20" value="" style="edgeStyle=orthogonalEdgeStyle;rounded=0;orthogonalLoop=1;jettySize=auto;html=1;" parent="1" source="9V3d-71UxQv5VBPhQEs--17" target="9V3d-71UxQv5VBPhQEs--19" edge="1">
          <mxGeometry relative="1" as="geometry" />
        </mxCell>
        <UserObject label="&lt;font style=&quot;font-size: 24px&quot;&gt;package imports&lt;/font&gt;" link="https://docs.reach.sh/guide-packages.html" id="9V3d-71UxQv5VBPhQEs--17">
          <mxCell style="text;html=1;strokeColor=none;fillColor=none;align=left;verticalAlign=middle;whiteSpace=wrap;rounded=0;" parent="1" vertex="1">
            <mxGeometry x="10" y="790" width="190" height="20" as="geometry" />
          </mxCell>
        </UserObject>
        <UserObject label="&lt;font style=&quot;font-size: 24px&quot;&gt;reach-pkg&lt;/font&gt;" link="https://github.com/topics/reach-pkg" id="9V3d-71UxQv5VBPhQEs--19">
          <mxCell style="text;html=1;strokeColor=none;fillColor=none;align=left;verticalAlign=middle;whiteSpace=wrap;rounded=0;" parent="1" vertex="1">
            <mxGeometry x="10" y="890" width="190" height="20" as="geometry" />
          </mxCell>
        </UserObject>
        <mxCell id="9V3d-71UxQv5VBPhQEs--27" value="" style="shape=image;html=1;verticalAlign=top;verticalLabelPosition=bottom;labelBackgroundColor=#ffffff;imageAspect=0;aspect=fixed;image=https://cdn4.iconfinder.com/data/icons/essential-app-1/16/education-degree-course-university-college-128.png" parent="1" vertex="1">
          <mxGeometry x="2500" y="988" width="128" height="128" as="geometry" />
        </mxCell>
        <mxCell id="9V3d-71UxQv5VBPhQEs--26" value="" style="shape=image;html=1;verticalAlign=top;verticalLabelPosition=bottom;labelBackgroundColor=#ffffff;imageAspect=0;aspect=fixed;image=https://cdn4.iconfinder.com/data/icons/free-game-icons/64/Chains.png" parent="1" vertex="1">
          <mxGeometry x="2490" y="1018" width="74" height="74" as="geometry" />
        </mxCell>
        <mxCell id="9V3d-71UxQv5VBPhQEs--28" value="&lt;span style=&quot;font-size: 24px&quot;&gt;&lt;font color=&quot;#ff3399&quot;&gt;Universities Unchained&lt;/font&gt;&lt;br&gt;&lt;/span&gt;" style="text;html=1;strokeColor=none;fillColor=none;align=center;verticalAlign=middle;whiteSpace=wrap;rounded=0;" parent="1" vertex="1">
          <mxGeometry x="2395" y="970" width="264" height="20" as="geometry" />
        </mxCell>
        <UserObject label="&lt;div style=&quot;text-align: right&quot;&gt;&lt;span style=&quot;color: rgb(255 , 51 , 153) ; font-size: 24px&quot;&gt;Highest Bidder &lt;/span&gt;&lt;b style=&quot;color: rgb(255 , 51 , 153) ; font-size: 24px&quot;&gt;Auction&lt;/b&gt;&lt;/div&gt;" link="https://en.wikipedia.org/wiki/Morra_(game)" id="9V3d-71UxQv5VBPhQEs--30">
          <mxCell style="text;html=1;strokeColor=none;fillColor=none;align=center;verticalAlign=middle;whiteSpace=wrap;rounded=0;" parent="1" vertex="1">
            <mxGeometry x="2680" y="1300" width="200" height="20" as="geometry" />
          </mxCell>
        </UserObject>
        <UserObject label="" link="https://www.youtube.com/watch?v=1JfOEf3o1hY" id="9V3d-71UxQv5VBPhQEs--31">
          <mxCell style="shape=image;html=1;verticalAlign=top;verticalLabelPosition=bottom;labelBackgroundColor=#ffffff;imageAspect=0;aspect=fixed;image=https://cdn3.iconfinder.com/data/icons/2018-social-media-logotypes/1000/2018_social_media_popular_app_logo_youtube-128.png" parent="1" vertex="1">
            <mxGeometry x="2930" y="1331.72" width="80" height="80" as="geometry" />
          </mxCell>
        </UserObject>
        <mxCell id="9V3d-71UxQv5VBPhQEs--32" value="" style="endArrow=none;dashed=1;html=1;dashPattern=1 3;strokeWidth=2;" parent="1" target="9V3d-71UxQv5VBPhQEs--33" edge="1">
          <mxGeometry width="50" height="50" relative="1" as="geometry">
            <mxPoint x="2945" y="1339.9999999999998" as="sourcePoint" />
            <mxPoint x="2995" y="1290" as="targetPoint" />
          </mxGeometry>
        </mxCell>
        <mxCell id="9V3d-71UxQv5VBPhQEs--33" value="Action on Algorand" style="text;html=1;strokeColor=none;fillColor=none;align=center;verticalAlign=middle;whiteSpace=wrap;rounded=0;" parent="1" vertex="1">
          <mxGeometry x="2942.5" y="1280" width="85" height="20" as="geometry" />
        </mxCell>
        <mxCell id="9V3d-71UxQv5VBPhQEs--34" value="&lt;span style=&quot;font-size: 24px&quot;&gt;Timed English Auction&lt;/span&gt;" style="text;html=1;strokeColor=none;fillColor=none;align=center;verticalAlign=middle;whiteSpace=wrap;rounded=0;" parent="1" vertex="1">
          <mxGeometry x="510" y="4710" width="250" height="20" as="geometry" />
        </mxCell>
        <mxCell id="9V3d-71UxQv5VBPhQEs--35" value="" style="endArrow=none;dashed=1;html=1;dashPattern=1 3;strokeWidth=2;" parent="1" edge="1">
          <mxGeometry width="50" height="50" relative="1" as="geometry">
            <mxPoint x="777" y="4726" as="sourcePoint" />
            <mxPoint x="2741.4285714285716" y="1390" as="targetPoint" />
          </mxGeometry>
        </mxCell>
        <mxCell id="9V3d-71UxQv5VBPhQEs--36" value="&lt;span style=&quot;font-size: 24px&quot;&gt;Atomic Swap Auction&lt;/span&gt;" style="text;html=1;strokeColor=none;fillColor=none;align=center;verticalAlign=middle;whiteSpace=wrap;rounded=0;" parent="1" vertex="1">
          <mxGeometry x="510" y="2950" width="250" height="20" as="geometry" />
        </mxCell>
        <mxCell id="9V3d-71UxQv5VBPhQEs--37" value="" style="endArrow=none;dashed=1;html=1;dashPattern=1 3;strokeWidth=2;" parent="1" edge="1">
          <mxGeometry width="50" height="50" relative="1" as="geometry">
            <mxPoint x="780" y="2960" as="sourcePoint" />
            <mxPoint x="2730" y="1408" as="targetPoint" />
          </mxGeometry>
        </mxCell>
        <mxCell id="9V3d-71UxQv5VBPhQEs--38" value="&lt;span style=&quot;font-size: 24px&quot;&gt;NFT with Action&lt;br&gt;&lt;/span&gt;" style="text;html=1;strokeColor=none;fillColor=none;align=center;verticalAlign=middle;whiteSpace=wrap;rounded=0;" parent="1" vertex="1">
          <mxGeometry x="510" y="3750" width="250" height="20" as="geometry" />
        </mxCell>
        <mxCell id="9V3d-71UxQv5VBPhQEs--39" value="" style="endArrow=none;dashed=1;html=1;dashPattern=1 3;strokeWidth=2;exitX=1;exitY=0.5;exitDx=0;exitDy=0;" parent="1" source="9V3d-71UxQv5VBPhQEs--38" edge="1">
          <mxGeometry width="50" height="50" relative="1" as="geometry">
            <mxPoint x="470" y="3500" as="sourcePoint" />
            <mxPoint x="2740" y="1400" as="targetPoint" />
          </mxGeometry>
        </mxCell>
        <UserObject label="&lt;font style=&quot;font-size: 24px&quot;&gt;AMM?&lt;/font&gt;" link="https://www.algorand.com/" id="9V3d-71UxQv5VBPhQEs--40">
          <mxCell style="ellipse;whiteSpace=wrap;html=1;aspect=fixed;" parent="1" vertex="1">
            <mxGeometry x="2820" y="360" width="80" height="80" as="geometry" />
          </mxCell>
        </UserObject>
        <UserObject label="&lt;font style=&quot;font-size: 24px&quot;&gt;ASA?&lt;/font&gt;" link="https://www.algorand.com/" id="9V3d-71UxQv5VBPhQEs--41">
          <mxCell style="ellipse;whiteSpace=wrap;html=1;aspect=fixed;" parent="1" vertex="1">
            <mxGeometry x="2730" y="360" width="80" height="80" as="geometry" />
          </mxCell>
        </UserObject>
        <mxCell id="nGF0HYolYDOEiMFPAIwu-11" value="" style="edgeStyle=orthogonalEdgeStyle;rounded=0;orthogonalLoop=1;jettySize=auto;html=1;entryX=0.5;entryY=1;entryDx=0;entryDy=0;" edge="1" parent="1" source="nGF0HYolYDOEiMFPAIwu-1" target="nGF0HYolYDOEiMFPAIwu-10">
          <mxGeometry relative="1" as="geometry">
            <Array as="points">
              <mxPoint x="900" y="2220" />
              <mxPoint x="1240" y="2220" />
            </Array>
          </mxGeometry>
        </mxCell>
        <UserObject label="&lt;span style=&quot;font-size: 24px&quot;&gt;a&lt;/span&gt;" link="https://docs.reach.sh/workshop-rental.html" id="nGF0HYolYDOEiMFPAIwu-1">
          <mxCell style="ellipse;whiteSpace=wrap;html=1;aspect=fixed;" vertex="1" parent="1">
            <mxGeometry x="860" y="2120" width="80" height="80" as="geometry" />
          </mxCell>
        </UserObject>
        <mxCell id="nGF0HYolYDOEiMFPAIwu-2" value="&lt;span style=&quot;font-size: 24px&quot;&gt;&lt;b&gt;RPS Ideas&lt;/b&gt;&lt;/span&gt;" style="text;html=1;strokeColor=none;fillColor=none;align=left;verticalAlign=middle;whiteSpace=wrap;rounded=0;" vertex="1" parent="1">
          <mxGeometry x="860" y="2060" width="354" height="20" as="geometry" />
        </mxCell>
        <mxCell id="nGF0HYolYDOEiMFPAIwu-3" value="&lt;span style=&quot;font-size: 24px&quot;&gt;React RPS Starter&lt;/span&gt;" style="text;html=1;strokeColor=none;fillColor=none;align=left;verticalAlign=middle;whiteSpace=wrap;rounded=0;" vertex="1" parent="1">
          <mxGeometry x="964" y="2150" width="250" height="20" as="geometry" />
        </mxCell>
        <UserObject label="&lt;span style=&quot;font-size: 24px&quot;&gt;a&lt;/span&gt;" link="https://docs.reach.sh/workshop-rental.html" id="nGF0HYolYDOEiMFPAIwu-5">
          <mxCell style="ellipse;whiteSpace=wrap;html=1;aspect=fixed;" vertex="1" parent="1">
            <mxGeometry x="860" y="2280" width="80" height="80" as="geometry" />
          </mxCell>
        </UserObject>
        <mxCell id="nGF0HYolYDOEiMFPAIwu-7" value="&lt;span style=&quot;font-size: 24px&quot;&gt;RPS Generator (Engine)&lt;/span&gt;" style="text;html=1;strokeColor=none;fillColor=none;align=center;verticalAlign=middle;whiteSpace=wrap;rounded=0;" vertex="1" parent="1">
          <mxGeometry x="964" y="2310" width="266" height="20" as="geometry" />
        </mxCell>
        <UserObject label="&lt;span style=&quot;font-size: 24px&quot;&gt;a&lt;/span&gt;" link="https://docs.reach.sh/workshop-rental.html" id="nGF0HYolYDOEiMFPAIwu-10">
          <mxCell style="ellipse;whiteSpace=wrap;html=1;aspect=fixed;" vertex="1" parent="1">
            <mxGeometry x="1200" y="2120" width="80" height="80" as="geometry" />
          </mxCell>
        </UserObject>
        <mxCell id="nGF0HYolYDOEiMFPAIwu-12" value="&lt;span style=&quot;font-size: 24px&quot;&gt;i18n&lt;/span&gt;" style="text;html=1;strokeColor=none;fillColor=none;align=left;verticalAlign=middle;whiteSpace=wrap;rounded=0;" vertex="1" parent="1">
          <mxGeometry x="1310" y="2150" width="250" height="20" as="geometry" />
        </mxCell>
        <UserObject label="&lt;span style=&quot;font-size: 24px&quot;&gt;a&lt;/span&gt;" link="https://docs.reach.sh/workshop-rental.html" id="nGF0HYolYDOEiMFPAIwu-13">
          <mxCell style="ellipse;whiteSpace=wrap;html=1;aspect=fixed;" vertex="1" parent="1">
            <mxGeometry x="860" y="2400" width="80" height="80" as="geometry" />
          </mxCell>
        </UserObject>
        <mxCell id="nGF0HYolYDOEiMFPAIwu-14" value="&lt;span style=&quot;font-size: 24px&quot;&gt;Battle Royal RPS&lt;/span&gt;" style="text;html=1;strokeColor=none;fillColor=none;align=left;verticalAlign=middle;whiteSpace=wrap;rounded=0;" vertex="1" parent="1">
          <mxGeometry x="964" y="2430" width="266" height="20" as="geometry" />
        </mxCell>
        <mxCell id="nGF0HYolYDOEiMFPAIwu-18" value="" style="edgeStyle=orthogonalEdgeStyle;rounded=0;orthogonalLoop=1;jettySize=auto;html=1;" edge="1" parent="1" source="nGF0HYolYDOEiMFPAIwu-16" target="nGF0HYolYDOEiMFPAIwu-17">
          <mxGeometry relative="1" as="geometry" />
        </mxCell>
        <mxCell id="nGF0HYolYDOEiMFPAIwu-20" value="" style="edgeStyle=orthogonalEdgeStyle;rounded=0;orthogonalLoop=1;jettySize=auto;html=1;" edge="1" parent="1" source="nGF0HYolYDOEiMFPAIwu-16" target="nGF0HYolYDOEiMFPAIwu-19">
          <mxGeometry relative="1" as="geometry" />
        </mxCell>
        <mxCell id="nGF0HYolYDOEiMFPAIwu-23" style="edgeStyle=orthogonalEdgeStyle;rounded=0;orthogonalLoop=1;jettySize=auto;html=1;exitX=0.5;exitY=1;exitDx=0;exitDy=0;entryX=0.25;entryY=0;entryDx=0;entryDy=0;" edge="1" parent="1" source="nGF0HYolYDOEiMFPAIwu-16">
          <mxGeometry relative="1" as="geometry">
            <mxPoint x="-740" y="490" as="targetPoint" />
          </mxGeometry>
        </mxCell>
        <UserObject label="&lt;font style=&quot;font-size: 24px&quot;&gt;Participants&lt;/font&gt;" link="https://docs.reach.sh/ref-programs-appinit.html#(part._.Participant_.Definition)" id="nGF0HYolYDOEiMFPAIwu-16">
          <mxCell style="text;html=1;strokeColor=none;fillColor=none;align=left;verticalAlign=middle;whiteSpace=wrap;rounded=0;" vertex="1" parent="1">
            <mxGeometry x="-1180" y="390" width="160" height="20" as="geometry" />
          </mxCell>
        </UserObject>
        <UserObject label="&lt;font style=&quot;font-size: 24px&quot;&gt;Participant&lt;/font&gt;" link="https://docs.reach.sh/ref-programs-appinit.html#(part._.Participant_.Definition)" id="nGF0HYolYDOEiMFPAIwu-17">
          <mxCell style="text;html=1;strokeColor=none;fillColor=none;align=left;verticalAlign=middle;whiteSpace=wrap;rounded=0;" vertex="1" parent="1">
            <mxGeometry x="-1180" y="490" width="160" height="20" as="geometry" />
          </mxCell>
        </UserObject>
        <UserObject label="&lt;font style=&quot;font-size: 24px&quot;&gt;ParticipantClass&lt;/font&gt;" link="https://docs.reach.sh/ref-programs-appinit.html#(part._.Participant_.Definition)" id="nGF0HYolYDOEiMFPAIwu-19">
          <mxCell style="text;html=1;strokeColor=none;fillColor=none;align=left;verticalAlign=middle;whiteSpace=wrap;rounded=0;" vertex="1" parent="1">
            <mxGeometry x="-1020" y="490" width="160" height="20" as="geometry" />
          </mxCell>
        </UserObject>
        <UserObject label="&lt;font style=&quot;font-size: 24px&quot;&gt;View&lt;/font&gt;" link="https://docs.reach.sh/ref-programs-appinit.html#(part._.Participant_.Definition)" id="nGF0HYolYDOEiMFPAIwu-21">
          <mxCell style="text;html=1;strokeColor=none;fillColor=none;align=left;verticalAlign=middle;whiteSpace=wrap;rounded=0;" vertex="1" parent="1">
            <mxGeometry x="-780" y="520" width="160" height="20" as="geometry" />
          </mxCell>
        </UserObject>
        <mxCell id="nGF0HYolYDOEiMFPAIwu-25" value="&lt;span style=&quot;font-size: 24px&quot;&gt;Monthly&lt;br&gt;Update&lt;br&gt;&lt;/span&gt;" style="text;html=1;strokeColor=none;fillColor=none;align=center;verticalAlign=middle;whiteSpace=wrap;rounded=0;" vertex="1" parent="1">
          <mxGeometry x="1560" y="440" width="210" height="20" as="geometry" />
        </mxCell>
        <UserObject label="&lt;font style=&quot;font-size: 24px&quot;&gt;Application Initialization&lt;/font&gt;" link="https://docs.reach.sh/ref-programs-appinit.html" id="nGF0HYolYDOEiMFPAIwu-31">
          <mxCell style="text;html=1;strokeColor=none;fillColor=none;align=left;verticalAlign=middle;whiteSpace=wrap;rounded=0;" vertex="1" parent="1">
            <mxGeometry x="-1580" y="430" width="260" height="20" as="geometry" />
          </mxCell>
        </UserObject>
        <UserObject label="&lt;span style=&quot;font-size: 24px&quot;&gt;&lt;b&gt;Reference&lt;/b&gt;&lt;/span&gt;" link="https://docs.reach.sh/workshop.html" id="nGF0HYolYDOEiMFPAIwu-32">
          <mxCell style="text;html=1;strokeColor=none;fillColor=none;align=left;verticalAlign=middle;whiteSpace=wrap;rounded=0;" vertex="1" parent="1">
            <mxGeometry x="-1580" y="310" width="160" height="20" as="geometry" />
          </mxCell>
        </UserObject>
        <mxCell id="nGF0HYolYDOEiMFPAIwu-33" value="" style="endArrow=none;html=1;" edge="1" parent="1">
          <mxGeometry width="50" height="50" relative="1" as="geometry">
            <mxPoint x="-1310" y="480" as="sourcePoint" />
            <mxPoint x="-1310" y="400" as="targetPoint" />
          </mxGeometry>
        </mxCell>
        <mxCell id="nGF0HYolYDOEiMFPAIwu-34" value="" style="endArrow=none;html=1;" edge="1" parent="1">
          <mxGeometry width="50" height="50" relative="1" as="geometry">
            <mxPoint x="-1300" y="380" as="sourcePoint" />
            <mxPoint x="-1310" y="400" as="targetPoint" />
          </mxGeometry>
        </mxCell>
        <mxCell id="nGF0HYolYDOEiMFPAIwu-35" value="" style="endArrow=none;html=1;" edge="1" parent="1">
          <mxGeometry width="50" height="50" relative="1" as="geometry">
            <mxPoint x="-1300" y="500" as="sourcePoint" />
            <mxPoint x="-1310" y="480" as="targetPoint" />
          </mxGeometry>
        </mxCell>
        <UserObject label="&lt;span style=&quot;font-size: 24px&quot;&gt;&lt;b&gt;Updates&lt;/b&gt;&lt;/span&gt;" link="https://docs.reach.sh/workshop.html" id="nGF0HYolYDOEiMFPAIwu-36">
          <mxCell style="text;html=1;strokeColor=none;fillColor=none;align=left;verticalAlign=middle;whiteSpace=wrap;rounded=0;" vertex="1" parent="1">
            <mxGeometry x="-2490" y="310" width="160" height="20" as="geometry" />
          </mxCell>
        </UserObject>
        <UserObject label="&lt;font style=&quot;font-size: 24px&quot;&gt;July 2021 Update&lt;/font&gt;" link="https://docs.reach.sh/ref-programs-appinit.html" id="nGF0HYolYDOEiMFPAIwu-37">
          <mxCell style="text;html=1;strokeColor=none;fillColor=none;align=left;verticalAlign=middle;whiteSpace=wrap;rounded=0;" vertex="1" parent="1">
            <mxGeometry x="-2481" y="430" width="260" height="20" as="geometry" />
          </mxCell>
        </UserObject>
        <UserObject label="&lt;font&gt;&lt;span style=&quot;font-size: 24px&quot;&gt;Product&lt;/span&gt;&lt;br&gt;&lt;ul&gt;&lt;li style=&quot;font-size: 24px&quot;&gt;&lt;font style=&quot;font-size: 24px&quot;&gt;Features&lt;/font&gt;&lt;/li&gt;&lt;ul&gt;&lt;li style=&quot;font-size: 24px&quot;&gt;&lt;font style=&quot;font-size: 24px&quot;&gt;Can now mint tokens&lt;/font&gt;&lt;/li&gt;&lt;ul style=&quot;font-size: 24px&quot;&gt;&lt;li&gt;&lt;font style=&quot;font-size: 24px&quot;&gt;ERC20 tokens on ETH&lt;/font&gt;&lt;/li&gt;&lt;li&gt;&lt;font style=&quot;font-size: 24px&quot;&gt;ASAs on ALGO coming soon&lt;/font&gt;&lt;/li&gt;&lt;/ul&gt;&lt;li&gt;&lt;span style=&quot;font-size: 24px&quot;&gt;Quality of life&lt;/span&gt;&lt;/li&gt;&lt;li&gt;&lt;span style=&quot;font-size: 24px&quot;&gt;Error messages&lt;/span&gt;&lt;/li&gt;&lt;/ul&gt;&lt;li&gt;&lt;span style=&quot;font-size: 24px&quot;&gt;Integrations&lt;/span&gt;&lt;/li&gt;&lt;ul&gt;&lt;li&gt;&lt;span style=&quot;font-size: 24px&quot;&gt;Conflux&lt;/span&gt;&lt;/li&gt;&lt;/ul&gt;&lt;/ul&gt;&lt;/font&gt;" link="https://docs.reach.sh/ref-programs-appinit.html" id="nGF0HYolYDOEiMFPAIwu-38">
          <mxCell style="text;html=1;strokeColor=#d6b656;fillColor=#fff2cc;align=left;verticalAlign=middle;whiteSpace=wrap;rounded=0;" vertex="1" parent="1">
            <mxGeometry x="-2481" y="480" width="400" height="340" as="geometry" />
          </mxCell>
        </UserObject>
        <UserObject label="&lt;font&gt;&lt;span style=&quot;font-size: 24px&quot;&gt;Business&lt;/span&gt;&lt;br&gt;&lt;ul&gt;&lt;li style=&quot;font-size: 24px&quot;&gt;Mascot&lt;/li&gt;&lt;ul&gt;&lt;li style=&quot;font-size: 24px&quot;&gt;Evie (Pink Yeti)&lt;/li&gt;&lt;ul&gt;&lt;li style=&quot;font-size: 24px&quot;&gt;Mischievous eavesdropper&lt;/li&gt;&lt;/ul&gt;&lt;/ul&gt;&lt;li&gt;&lt;span style=&quot;font-size: 24px&quot;&gt;Community-led projects&lt;/span&gt;&lt;/li&gt;&lt;ul&gt;&lt;li&gt;&lt;span style=&quot;font-size: 24px&quot;&gt;Merit badges&lt;/span&gt;&lt;/li&gt;&lt;/ul&gt;&lt;li&gt;&lt;span style=&quot;font-size: 24px&quot;&gt;New grant&lt;/span&gt;&lt;/li&gt;&lt;ul&gt;&lt;li&gt;&lt;span style=&quot;font-size: 24px&quot;&gt;Cosmos (ATOM) POC&lt;/span&gt;&lt;/li&gt;&lt;/ul&gt;&lt;li&gt;&lt;span style=&quot;font-size: 24px&quot;&gt;New team member&lt;/span&gt;&lt;/li&gt;&lt;ul&gt;&lt;li&gt;&lt;span style=&quot;font-size: 24px&quot;&gt;Director of growth&lt;/span&gt;&lt;/li&gt;&lt;ul&gt;&lt;li&gt;&lt;span style=&quot;font-size: 24px&quot;&gt;Brandon Rodriguez&lt;/span&gt;&lt;/li&gt;&lt;/ul&gt;&lt;/ul&gt;&lt;li&gt;&lt;span style=&quot;font-size: 24px&quot;&gt;We&#39;re hiring&lt;/span&gt;&lt;/li&gt;&lt;ul&gt;&lt;li&gt;&lt;span style=&quot;font-size: 24px&quot;&gt;Curriculum developers&lt;/span&gt;&lt;/li&gt;&lt;ul&gt;&lt;li&gt;&lt;span style=&quot;font-size: 24px&quot;&gt;Universities&lt;/span&gt;&lt;/li&gt;&lt;li&gt;&lt;span style=&quot;font-size: 24px&quot;&gt;Bootcamps&lt;/span&gt;&lt;/li&gt;&lt;li&gt;&lt;span style=&quot;font-size: 24px&quot;&gt;Self-paced&lt;/span&gt;&lt;/li&gt;&lt;/ul&gt;&lt;li&gt;&lt;span style=&quot;font-size: 24px&quot;&gt;Director of learning&lt;/span&gt;&lt;/li&gt;&lt;li&gt;&lt;span style=&quot;font-size: 24px&quot;&gt;Core team&lt;/span&gt;&lt;/li&gt;&lt;ul&gt;&lt;li&gt;&lt;span style=&quot;font-size: 24px&quot;&gt;Haskell compiler&lt;/span&gt;&lt;/li&gt;&lt;li&gt;&lt;span style=&quot;font-size: 24px&quot;&gt;Mobile focused&lt;/span&gt;&lt;/li&gt;&lt;li&gt;&lt;span style=&quot;font-size: 24px&quot;&gt;IDE&lt;/span&gt;&lt;/li&gt;&lt;li&gt;&lt;span style=&quot;font-size: 24px&quot;&gt;Devops PAAS Engineer&lt;/span&gt;&lt;/li&gt;&lt;li&gt;&lt;span style=&quot;font-size: 24px&quot;&gt;Blockchain Runtime Engineer&lt;/span&gt;&lt;/li&gt;&lt;li&gt;&lt;span style=&quot;font-size: 24px&quot;&gt;Head of Engineering&lt;/span&gt;&lt;/li&gt;&lt;/ul&gt;&lt;/ul&gt;&lt;/ul&gt;&lt;/font&gt;" link="https://docs.reach.sh/ref-programs-appinit.html" id="nGF0HYolYDOEiMFPAIwu-43">
          <mxCell style="text;html=1;strokeColor=#6c8ebf;fillColor=#dae8fc;align=left;verticalAlign=middle;whiteSpace=wrap;rounded=0;" vertex="1" parent="1">
            <mxGeometry x="-2081" y="480" width="400" height="770" as="geometry" />
          </mxCell>
        </UserObject>
        <UserObject label="&lt;font&gt;&lt;span style=&quot;font-size: 24px&quot;&gt;Community&lt;/span&gt;&lt;br&gt;&lt;ul&gt;&lt;li style=&quot;font-size: 24px&quot;&gt;1400 developers!&lt;/li&gt;&lt;li style=&quot;font-size: 24px&quot;&gt;Congrats&lt;/li&gt;&lt;li style=&quot;font-size: 24px&quot;&gt;Nominations&lt;/li&gt;&lt;ul&gt;&lt;li style=&quot;font-size: 24px&quot;&gt;Chris Nevers&lt;/li&gt;&lt;li style=&quot;font-size: 24px&quot;&gt;Dan&lt;/li&gt;&lt;ul&gt;&lt;li style=&quot;font-size: 24px&quot;&gt;Work on Conflux Integration&lt;/li&gt;&lt;li style=&quot;font-size: 24px&quot;&gt;(Nominated by Jay)&lt;/li&gt;&lt;/ul&gt;&lt;li&gt;&lt;span style=&quot;font-size: 24px&quot;&gt;Tim&lt;/span&gt;&lt;/li&gt;&lt;ul&gt;&lt;li&gt;&lt;span style=&quot;font-size: 24px&quot;&gt;Conflux Bounty Hack&lt;/span&gt;&lt;/li&gt;&lt;/ul&gt;&lt;li&gt;&lt;span style=&quot;font-size: 24px&quot;&gt;Matt Hagen&lt;/span&gt;&lt;/li&gt;&lt;ul&gt;&lt;li&gt;&lt;span style=&quot;font-size: 24px&quot;&gt;(Nominated by bossman Chris)&lt;/span&gt;&lt;/li&gt;&lt;/ul&gt;&lt;/ul&gt;&lt;/ul&gt;&lt;/font&gt;" link="https://docs.reach.sh/ref-programs-appinit.html" id="nGF0HYolYDOEiMFPAIwu-44">
          <mxCell style="text;html=1;strokeColor=#82b366;fillColor=#d5e8d4;align=left;verticalAlign=middle;whiteSpace=wrap;rounded=0;" vertex="1" parent="1">
            <mxGeometry x="-2481" y="820" width="400" height="430" as="geometry" />
          </mxCell>
        </UserObject>
        <UserObject label="&lt;font&gt;&lt;span style=&quot;font-size: 24px&quot;&gt;Next month&lt;/span&gt;&lt;br&gt;&lt;ul&gt;&lt;li style=&quot;font-size: 24px&quot;&gt;Dex is coming&lt;/li&gt;&lt;li style=&quot;font-size: 24px&quot;&gt;Rewrite for 0.9&lt;/li&gt;&lt;li style=&quot;font-size: 24px&quot;&gt;Forward/rewind&lt;/li&gt;&lt;li style=&quot;font-size: 24px&quot;&gt;Docker docker docker&lt;/li&gt;&lt;li style=&quot;font-size: 24px&quot;&gt;Conflux&lt;/li&gt;&lt;ul&gt;&lt;li style=&quot;font-size: 24px&quot;&gt;Conflux portal integration&lt;/li&gt;&lt;/ul&gt;&lt;li&gt;&lt;span style=&quot;font-size: 24px&quot;&gt;Cosmo&lt;/span&gt;&lt;br&gt;&lt;/li&gt;&lt;li&gt;&lt;span style=&quot;font-size: 24px&quot;&gt;ETHCC&lt;/span&gt;&lt;/li&gt;&lt;li&gt;&lt;span style=&quot;font-size: 24px&quot;&gt;New content&lt;/span&gt;&lt;/li&gt;&lt;ul&gt;&lt;li&gt;&lt;span style=&quot;font-size: 24px&quot;&gt;Videos etc&lt;/span&gt;&lt;/li&gt;&lt;/ul&gt;&lt;/ul&gt;&lt;/font&gt;" link="https://docs.reach.sh/ref-programs-appinit.html" id="nGF0HYolYDOEiMFPAIwu-45">
          <mxCell style="text;html=1;strokeColor=#b85450;fillColor=#f8cecc;align=left;verticalAlign=middle;whiteSpace=wrap;rounded=0;" vertex="1" parent="1">
            <mxGeometry x="-2481" y="1250" width="400" height="340" as="geometry" />
          </mxCell>
        </UserObject>
        <UserObject label="&lt;font&gt;&lt;span style=&quot;font-size: 24px&quot;&gt;Q&amp;amp;A&lt;/span&gt;&lt;br&gt;&lt;ul&gt;&lt;li style=&quot;font-size: 24px&quot;&gt;Cosmos love&lt;/li&gt;&lt;li style=&quot;font-size: 24px&quot;&gt;Do the tutorials&lt;/li&gt;&lt;li style=&quot;font-size: 24px&quot;&gt;Balancer port&lt;/li&gt;&lt;ul&gt;&lt;li style=&quot;font-size: 24px&quot;&gt;Might not happen&lt;/li&gt;&lt;ul&gt;&lt;li style=&quot;font-size: 24px&quot;&gt;No official deal&lt;/li&gt;&lt;/ul&gt;&lt;li&gt;&lt;span style=&quot;font-size: 24px&quot;&gt;Make own dex&lt;/span&gt;&lt;/li&gt;&lt;/ul&gt;&lt;li&gt;&lt;span style=&quot;font-size: 24px&quot;&gt;Tool to suggest better code&lt;/span&gt;&lt;/li&gt;&lt;ul&gt;&lt;li&gt;&lt;span style=&quot;font-size: 24px&quot;&gt;Use verify&lt;/span&gt;&lt;/li&gt;&lt;/ul&gt;&lt;li&gt;&lt;span style=&quot;font-size: 24px&quot;&gt;Dex launch date&lt;/span&gt;&lt;/li&gt;&lt;/ul&gt;&lt;/font&gt;" link="https://docs.reach.sh/ref-programs-appinit.html" id="nGF0HYolYDOEiMFPAIwu-46">
          <mxCell style="text;html=1;strokeColor=#666666;fillColor=#f5f5f5;align=left;verticalAlign=middle;whiteSpace=wrap;rounded=0;fontColor=#333333;spacingTop=0;" vertex="1" parent="1">
            <mxGeometry x="-2081" y="1250" width="400" height="340" as="geometry" />
          </mxCell>
        </UserObject>
      </root>
    </mxGraphModel>
  </diagram>
</mxfile>
